<?xml version="1.0" encoding="utf-8"?>
<!-- Generator: Adobe Illustrator 27.5.0, SVG Export Plug-In . SVG Version: 6.00 Build 0)  -->
<svg version="1.1" xmlns="http://www.w3.org/2000/svg" xmlns:xlink="http://www.w3.org/1999/xlink" x="0px" y="0px"
	 viewBox="0 0 750 500" style="enable-background:new 0 0 750 500;" xml:space="preserve">
<g id="BACKGROUND">
</g>
<g id="OBJECTS">
	<path style="fill:#304767;" d="M407.589,225.653c-0.066,0-0.066,0.103,0,0.103C407.655,225.756,407.655,225.653,407.589,225.653z"
		/>
	<g>
		<g>
			<path style="fill:#3A5074;" d="M287.509,323.184c19.817-1.627,39.683-2.644,59.562-3.067c5.038-0.107,10.332-0.117,14.763,2.283
				c1.535,0.831,2.989,2.032,3.534,3.69c0.5,1.519,0.156,3.203-0.499,4.662c-1.798,4-5.688,6.624-9.575,8.655
				c-6.897,3.604-14.373,6.023-21.992,7.606c-7.409,1.539-15.02,2.299-22.56,1.659c-7.002-0.595-13.845-2.386-20.59-4.361
				c-6.045-1.77-12.063-3.701-17.778-6.349c-3.608-1.672-10.725-7.662-4.939-11.144C272.809,323.583,281.45,323.681,287.509,323.184
				z"/>
			<path style="fill:#C54A2C;" d="M277.51,359.756c-2.144,0.859-4.284,1.88-5.91,3.521c-1.626,1.64-2.669,4.014-2.202,6.276
				c0.677,3.278,4.286,5.242,7.632,5.29c3.346,0.047,6.522-1.331,9.659-2.497c3.315-1.232,6.709-2.252,10.154-3.05
				c0.881-0.204,1.797-0.408,2.519-0.953c1.199-0.905,1.586-2.539,1.607-4.042c0.057-4.137-1.591-8.633-6.168-8.518
				C288.971,355.929,282.891,357.6,277.51,359.756z"/>
			<path style="fill:#3A5074;" d="M373.99,351.497c-2.809,2.82-6.612,4.572-10.416,6.035c-8.824,3.396-18.11,5.571-27.358,7.735
				c-12.476,2.919-25.064,5.854-37.898,6.271c-0.881,0.029-1.836,0.025-2.54-0.469c-0.634-0.445-0.924-1.191-1.174-1.896
				c-1.054-2.972-1.984-5.982-2.787-9.023c-0.147-0.557-0.289-1.152-0.091-1.698c0.232-0.641,0.875-1.062,1.496-1.409
				c4.405-2.457,9.418-3.851,13.992-6.001c4.991-2.346,9.843-4.958,14.719-7.522c13.68-7.193,27.797-13.262,43.395-14.828
				c8.48-0.851,12.878,3.486,12.977,11.881C378.351,344.536,376.908,348.568,373.99,351.497z"/>
			<path style="fill:#C54A2C;" d="M344.542,358.742c2.774,0.682,5.582,1.377,8.096,2.74c2.514,1.362,4.743,3.488,5.626,6.221
				c0.883,2.733,0.141,6.086-2.192,7.743c-2.707,1.921-6.485,1.087-9.431-0.435c-2.946-1.522-5.655-3.677-8.9-4.347
				c-1.919-0.396-4.007-0.268-5.709-1.245c-1.556-0.894-2.536-2.647-2.678-4.445c-0.142-1.797,0.499-3.609,1.583-5.044
				C334.301,355.482,340.168,357.666,344.542,358.742z"/>
			<path style="fill:#3A5074;" d="M256.648,352.727c2.862,2.77,6.697,4.452,10.528,5.848c8.887,3.237,18.212,5.246,27.499,7.243
				c12.529,2.695,25.17,5.404,38.01,5.591c0.882,0.013,1.837-0.008,2.531-0.514c0.626-0.456,0.901-1.207,1.138-1.917
				c0.998-2.99,2.301-6.875,3.046-9.93c0.137-0.56,0.267-1.157,0.059-1.699c-0.244-0.636-0.895-1.047-1.522-1.382
				c-4.45-2.378-9.918-4.11-14.532-6.178c-5.034-2.256-9.934-3.494-14.857-5.969c-13.813-6.946-28.042-12.761-43.666-14.047
				c-8.495-0.699-12.81,3.716-12.752,12.112C252.156,345.845,253.676,349.851,256.648,352.727z"/>
			<path style="fill:#304767;" d="M340.258,355.258c-9.093-5.733-19.357-9.061-29.593-12.109c-5.17-1.539-10.358-3.023-15.463-4.769
				c-2.482-0.849-4.945-1.757-7.367-2.765c-2.543-1.059-5.149-2.692-7.846-3.278c-0.577-0.126-1.05,0.576-0.595,1.023
				c1.778,1.747,4.4,2.755,6.654,3.739c2.378,1.038,4.793,1.987,7.233,2.868c5.074,1.832,10.246,3.376,15.406,4.943
				c10.499,3.189,21.025,6.503,30.387,12.374C340.357,358.09,341.534,356.063,340.258,355.258z"/>
		</g>
		<g>
			<path style="fill:#DA9D92;" d="M313.1,242.721c-3.344,1.44-6.728,0.896-10.092,2.244c-2.988,1.198-5.991,2.404-8.804,4.251
				c-5.814,3.818-10.591,10.243-14.451,17.427c-3.859,7.185-6.882,15.164-9.972,23.043c-3.368,8.59-6.881,17.262-8.391,26.83
				c-0.542,3.431-0.803,7.118,0.135,10.378c1.239,4.303,4.393,7.059,7.633,8.039c3.24,0.98,6.604,0.466,9.899-0.044
				c10.348-1.605,21.041-3.104,30.991,1.185c1.304,0.562,2.601,1.225,3.959,1.406c1.94,0.259,3.872-0.481,5.734-1.286
				c7.665-3.314,15.173-7.896,23.171-8.774c5.469-0.6,10.96,0.664,16.445,0.844c1.463,0.048,2.93,0.096,4.386-0.111
				c2.716-0.386,4.607-3.368,5.412-7.019c0.805-3.651,0.476-7.596-0.071-11.34c-3.856-26.386-16.987-50.873-34.743-61.825
				C328.145,244.149,319.832,239.823,313.1,242.721z"/>
			<path style="fill:#E8B390;" d="M308.51,251.575c0.001,0.257,0.007,0.531,0.137,0.747c0.159,0.264,0.46,0.375,0.74,0.461
				c4.007,1.226,8.406,0.895,12.217-0.918c0.193-0.092,0.395-0.197,0.509-0.389c0.121-0.204,0.117-0.462,0.11-0.703
				c-0.24-7.857-0.481-15.715-0.721-23.572c-0.019-0.635-6.169-0.924-6.808-0.926c-1.432-0.007-4.745-0.321-5.901,0.808
				c-1.147,1.121-0.395,5.369-0.386,6.938c0.016,2.734,0.032,5.468,0.048,8.202C308.473,245.34,308.492,248.457,308.51,251.575z"/>
			<g>
				<path style="fill:#FBF2E6;" d="M323.456,242.272c-1.33-0.392-2.637,2.085-3.34,2.98c-1.79,2.279-3.477,4.636-5.066,7.058
					c-1.589-2.422-3.276-4.779-5.066-7.058c-0.703-0.895-2.01-3.372-3.34-2.98c-1.281,0.378-1.306,2.773-1.287,3.775
					c0.067,3.472,0.439,6.938,1.111,10.346c2.913-0.403,5.789-1.068,8.582-1.983c2.794,0.915,5.669,1.58,8.582,1.983
					c0.672-3.408,1.044-6.874,1.111-10.346C324.762,245.045,324.737,242.65,323.456,242.272z"/>
				<path style="fill:#FBF2E6;" d="M316.452,258.591c-0.46-0.423-1.027-0.689-1.664-0.689c-0.604,0-1.238,0.263-1.664,0.689
					c-0.408,0.408-0.716,1.078-0.689,1.664c0.027,0.609,0.227,1.24,0.689,1.664c0.46,0.423,1.027,0.689,1.664,0.689
					c0.603,0,1.237-0.262,1.664-0.689c0.408-0.408,0.716-1.078,0.689-1.664C317.114,259.646,316.914,259.015,316.452,258.591z"/>
				<path style="fill:#FBF2E6;" d="M316.452,266.745c-0.46-0.423-1.027-0.689-1.664-0.689c-0.604,0-1.238,0.263-1.664,0.689
					c-0.408,0.408-0.716,1.078-0.689,1.664c0.027,0.609,0.227,1.24,0.689,1.664c0.46,0.423,1.027,0.689,1.664,0.689
					c0.603,0,1.237-0.263,1.664-0.689c0.408-0.408,0.716-1.078,0.689-1.664C317.114,267.801,316.914,267.169,316.452,266.745z"/>
			</g>
			<g>
				<path style="fill:#CC8880;" d="M363.194,307.762c-2.246,0.719-4.311,1.129-6.667,1.324c-0.841-7.549-3.455-15.261-6.352-22.216
					c-1.473-3.537-3.118-7.006-4.976-10.359c-1.597-2.881-3.557-7.109-6.473-8.864c-0.163-0.098-0.323,0.063-0.296,0.227
					c0.295,1.735,1.366,3.298,2.222,4.808c0.86,1.517,1.69,3.048,2.501,4.592c1.868,3.551,3.574,7.173,5.033,10.913
					c1.356,3.478,2.544,7.021,3.531,10.621c0.944,3.442,1.513,6.94,2.278,10.411c-1.024,0.091-2.014,0.306-2.809,0.929
					c-0.167,0.131-0.093,0.405,0.064,0.5c1.802,1.095,4.66,0.464,6.692,0.306c2.017-0.156,4.226-0.424,5.928-1.586
					C364.653,308.837,364.199,307.44,363.194,307.762z"/>
				<path style="fill:#CC8880;" d="M291.559,268.868c-4.66,7.052-7.89,14.926-10.426,22.983c-2.446,7.77-4.421,15.851-5.378,23.958
					c-1.109,0.068-2.22,0.156-3.301,0.127c-2.02-0.055-4.215-0.615-6.194-0.206c-0.511,0.105-0.551,0.825-0.14,1.073
					c1.769,1.066,4.317,1.05,6.334,1.123c2.249,0.082,4.949,0.216,7.068-0.628c0.804-0.32,0.647-1.357-0.198-1.465
					c-0.322-0.041-0.649-0.064-0.977-0.078c1.281-7.869,2.788-15.61,5.151-23.251c2.459-7.951,5.624-15.651,8.54-23.433
					C292.146,268.78,291.714,268.633,291.559,268.868z"/>
			</g>
		</g>
		<path style="fill:#304767;" d="M363.37,330.121c-4.155,0.232-8.408,1.427-12.456,2.38c-4.429,1.042-8.822,2.245-13.17,3.602
			c-4.214,1.316-8.399,2.76-12.509,4.391c-3.917,1.554-8.464,3.005-11.858,5.597c-0.598,0.457-0.262,1.438,0.517,1.265
			c4.21-0.934,8.288-3.221,12.327-4.767c4.002-1.532,8.037-2.962,12.123-4.24c4.084-1.278,8.208-2.418,12.364-3.418
			c4.267-1.027,8.723-1.536,12.933-2.749C364.716,331.872,364.542,330.056,363.37,330.121z"/>
		<g>
			<g>
				<path style="fill:#FBF2E6;" d="M291.157,290.19c-0.047-3.128,0.06-6.258,0.321-9.375c4.181,0.698,8.394,1.405,12.359,2.906
					c3.965,1.501,7.713,3.867,10.176,7.317c6.058-6.531,15.071-10.191,23.951-9.495c0.185,0.014,0.388,0.04,0.511,0.178
					c0.117,0.132,0.124,0.325,0.124,0.501c0.01,2.584,0.021,5.167,0.031,7.751c-6.4,2.337-13.121,3.791-19.915,4.309
					c-5.773,0.439-11.578,0.205-17.351-0.234c-1.223-0.093-2.453-0.196-3.635-0.521C295.366,292.877,293.452,291.051,291.157,290.19
					z"/>
				<path style="fill:#F1CD73;" d="M287.362,286.239c8.7-3.217,19.033-1.546,26.275,4.25c4.348-2.312,8.809-4.289,13.602-5.422
					c4.793-1.133,10.056-1.01,14.383,1.342c0.21,10.925-0.066,21.969-1.101,32.847c-8.263,0.669-16.339,2.757-24.003,5.92
					c-3.926-1.089-8.006-2.091-12.065-2.438c-2.151-0.184-4.315-0.087-6.457,0.156c-2.062,0.234-4.246,0.477-6.25,1.009
					c-0.698,0.186-3.311,1.072-3.432-0.206c-0.052-0.55-0.102-1.101-0.148-1.652c-0.093-1.1-0.175-2.202-0.248-3.304
					c-0.145-2.201-0.252-4.405-0.33-6.609c-0.157-4.408-0.2-8.82-0.211-13.231C287.367,294.68,287.385,290.46,287.362,286.239z"/>
				<path style="fill:#EBB638;" d="M316.405,323.728c-0.574-5.6-1.019-11.212-1.319-16.834c-0.142-2.653-0.239-5.306-0.334-7.961
					c-0.092-2.573-0.016-5.227-0.619-7.743c-0.138-0.576-1.099-0.716-1.243-0.063c-1.152,5.21-0.291,11.2-0.009,16.491
					c0.295,5.546,0.731,11.082,1.282,16.608C314.309,325.691,316.555,325.187,316.405,323.728z"/>
				<path style="fill:#EBB638;" d="M307.163,294.108c-1.944-0.992-4.47-0.798-6.616-0.847c-2.399-0.054-5.04-0.193-7.346,0.558
					c-0.567,0.185-0.495,0.925,0.086,1.02c2.336,0.382,4.808,0.078,7.172,0.156c2.09,0.07,4.471,0.695,6.503,0.207
					C307.425,295.092,307.649,294.356,307.163,294.108z"/>
				<path style="fill:#EBB638;" d="M307.086,300.225c-2.119-0.885-4.834-0.731-7.099-0.725c-2.143,0.005-4.367-0.004-6.374,0.819
					c-0.379,0.155-0.346,0.842,0.074,0.924c2.167,0.426,4.409,0.158,6.608,0.227c2.213,0.069,4.523,0.613,6.712,0.331
					C307.877,301.689,307.758,300.506,307.086,300.225z"/>
				<path style="fill:#EBB638;" d="M336.565,309.985c-0.154-2.54-0.309-5.079-0.444-7.62c-0.037-0.698-0.515-1.074-1.198-1.012
					c-4.124,0.376-8.658,0.56-12.67,1.805c-0.581-0.292-1.436-0.054-1.443,0.781c-0.03,3.424,0.094,6.842,0.363,10.256
					c0.053,0.67,0.491,1.068,1.174,0.991c2.409-0.272,4.819-0.544,7.228-0.816l4.015-0.453c0.726-0.082,1.691-0.017,2.329-0.424
					C337.094,312.743,336.636,311.158,336.565,309.985z M334.709,311.091c-0.27,1.112,0.308,0.731-1.137,0.895
					c-3.515,0.397-7.03,0.794-10.545,1.19c-0.196-2.874-0.28-5.748-0.25-8.63c3.776,0.058,7.701-0.674,11.449-1.138
					c0.099,1.491,0.197,2.982,0.288,4.473C334.57,308.799,334.924,310.205,334.709,311.091z"/>
			</g>
			<path style="fill:#E8B390;" d="M290.506,307.89c0.583-0.663,1.328-1.388,2.201-1.253c0.511,0.533,0.284,1.406-0.009,2.084
				c-0.429,0.991-0.932,1.951-1.503,2.867c2-1.416,4.045-2.855,6.392-3.561c0.211-0.063,0.441-0.12,0.646-0.04
				c0.526,0.205,0.385,0.989,0.109,1.48c-1.034,1.841-2.621,3.299-4.181,4.723c1.654-1.031,3.456-1.822,5.334-2.342
				c0.313-0.087,0.642-0.166,0.958-0.092c0.316,0.074,0.608,0.352,0.585,0.676c-0.02,0.292-0.271,0.508-0.502,0.688
				c-1.264,0.985-2.528,1.97-3.793,2.956c1.54-0.777,3.23-1.257,4.949-1.405c0.416-0.036,0.955,0.03,1.062,0.433
				c0.097,0.367-0.257,0.684-0.571,0.897c-1.418,0.965-2.855,1.902-4.31,2.812c1.346-0.382,2.85-0.751,4.09-0.102
				c0.248,0.13,0.508,0.391,0.402,0.65c-0.059,0.145-0.212,0.224-0.353,0.292c-0.618,0.296-1.236,0.593-1.854,0.889
				c-4.902,2.351-9.902,4.733-15.287,5.487c-1.296,0.181-2.715,0.24-3.807-0.481c-0.75-0.495-1.241-1.296-1.618-2.112
				c-1.103-2.391-1.376-5.291-0.152-7.622c0.182-0.346,0.405-0.688,0.733-0.9c0.357-0.231,0.797-0.285,1.22-0.333
				c0.985-0.111,2.108-0.084,3.067-0.31c0.837-0.197,1.163-0.674,1.743-1.332C287.53,311.27,288.931,309.466,290.506,307.89z"/>
			<path style="fill:#E8B390;" d="M339.526,305.598c-0.741-0.48-1.654-0.977-2.458-0.611c-0.348,0.651,0.107,1.431,0.572,2.004
				c0.681,0.839,1.424,1.626,2.223,2.354c-2.308-0.823-4.667-1.655-7.117-1.7c-0.22-0.004-0.457,0.004-0.633,0.136
				c-0.451,0.339-0.103,1.056,0.296,1.455c1.494,1.493,3.415,2.467,5.302,3.416c-1.871-0.545-3.82-0.82-5.769-0.812
				c-0.324,0.001-0.663,0.014-0.947,0.171c-0.284,0.157-0.49,0.504-0.381,0.809c0.098,0.276,0.398,0.416,0.669,0.527
				c1.483,0.607,2.967,1.213,4.451,1.82c-1.693-0.331-3.45-0.336-5.145-0.014c-0.41,0.078-0.911,0.287-0.905,0.704
				c0.005,0.379,0.432,0.589,0.792,0.71c1.626,0.545,3.263,1.059,4.91,1.541c-1.399-0.004-2.947,0.048-3.965,1.008
				c-0.204,0.193-0.383,0.513-0.211,0.735c0.096,0.124,0.264,0.159,0.418,0.186c0.675,0.118,1.35,0.237,2.026,0.355
				c5.355,0.938,10.814,1.879,16.201,1.148c1.297-0.176,2.679-0.503,3.535-1.492c0.588-0.679,0.845-1.583,0.986-2.47
				c0.415-2.6-0.106-5.466-1.915-7.379c-0.269-0.284-0.575-0.553-0.949-0.668c-0.406-0.126-0.845-0.059-1.264,0.01
				c-0.979,0.159-2.052,0.49-3.037,0.531c-0.859,0.036-1.302-0.334-2.038-0.811C343.305,308.047,341.469,306.689,339.526,305.598z"
				/>
		</g>
		<g>
			<path style="fill:#1C2A36;" d="M291.493,210.33c-0.234-1.518-0.469-3.036-0.703-4.554c-0.216-1.399-0.432-2.803-0.44-4.217
				c-0.014-2.833,0.828-5.652,2.319-8.096c1.921-3.149,5.199-5.783,8.992-5.977c2.663-3.408,6.807-5.709,11.208-6.223
				c4.401-0.515,8.999,0.764,12.434,3.459c0.395,0.309,0.786,0.643,1.264,0.812c0.443,0.156,0.926,0.158,1.397,0.194
				c2.764,0.21,5.389,1.722,6.886,3.966c1.497,2.244,1.83,5.168,0.874,7.67c3.54,1.816,5.028,6.577,3.116,9.968
				c-0.52,0.921-1.237,1.723-1.874,2.573c-1.323,1.767-2.31,3.765-2.898,5.867c-0.634,2.267-0.861,4.765-2.405,6.584
				c-1.304,1.536-3.331,2.311-5.307,2.879c-7.798,2.243-16.28,2.163-24.06-0.114c-2.47-0.723-5.993-1.449-7.606-3.555
				C292.413,218.591,292.038,213.858,291.493,210.33z"/>
			<g>
				<path style="fill:#E8B390;" d="M304.46,197.069c-3.259,2.228-5.354,5.78-6.331,9.501c-0.977,3.722-0.921,7.624-0.535,11.444
					c0.32,3.161,0.861,6.301,1.591,9.399c0.492,2.087,1.085,4.19,2.256,6.011c1.767,2.746,4.772,4.648,8.017,5.503
					c3.244,0.856,6.711,0.725,9.993,0.014c1.508-0.327,3.003-0.78,4.327-1.545c2.405-1.388,4.092-3.73,5.079-6.25
					c0.987-2.52,1.33-5.226,1.529-7.911c0.288-3.883,0.29-7.78,0.292-11.673c0.001-1.74,0-3.494-0.353-5.201
					c-0.663-3.204-2.608-6.147-5.345-8.091c-1.491-1.059-3.211-1.816-5.015-2.232c-1.66-0.383-3.363-0.222-5.005-0.61
					C311.249,194.552,307.658,194.882,304.46,197.069z"/>
				<path style="fill:#E8B390;" d="M293.096,218.127c-0.418,0.499-0.627,1.132-0.74,1.763c-0.341,1.898,0.142,3.935,1.369,5.458
					c1.227,1.523,3.194,2.49,5.198,2.48c0.657-0.003,1.329-0.112,1.894-0.435c1.259-0.719,1.676-2.307,1.581-3.712
					c-0.146-2.159-1.399-4.726-3.348-5.937C297.443,216.746,294.389,216.585,293.096,218.127z"/>
				<path style="fill:#E8B390;" d="M335.855,218.127c0.418,0.499,0.627,1.132,0.74,1.763c0.341,1.898-0.142,3.935-1.368,5.458
					c-1.227,1.523-3.194,2.49-5.198,2.48c-0.657-0.003-1.329-0.112-1.894-0.435c-1.259-0.719-1.676-2.307-1.581-3.712
					c0.146-2.159,1.4-4.726,3.348-5.937C331.508,216.746,334.562,216.585,335.855,218.127z"/>
			</g>
			<path style="fill:#1C2A36;" d="M297.353,206.861c1.534-3.341,5.064-5.902,8.864-5.872c3.769,0.03,7.406,2.441,11.076,1.619
				c0.832-0.187,1.614-0.534,2.429-0.78c3.097-0.936,6.66-0.298,9.198,1.648c0.536,0.411,1.073,0.895,1.753,0.978
				c1.147,0.14,2.09-0.956,2.332-2.043c0.361-1.62-0.277-3.287-1.059-4.763c-1.533-2.893-3.782-5.574-6.856-6.92
				c-1.655-0.725-3.474-1.033-5.283-1.212c-4.422-0.438-8.982-0.126-13.13,1.409c-4.148,1.535-7.858,4.366-9.904,8.159
				c-1.707,3.165-2.275,6.903-2.277,10.436c0,0.584,0.381,3.259,1.642,2.192c0.331-0.28,0.291-1.915,0.393-2.368
				C296.722,208.493,296.987,207.658,297.353,206.861z"/>
			<g>
				<path style="fill:#1C2A36;" d="M307.127,218.15c-0.222-0.154-0.48-0.258-0.753-0.295c-0.768-0.103-1.472,0.334-1.827,1.004
					c-0.315,0.594-0.26,1.253-0.111,1.886c0.001,0.006,0.003,0.011,0.004,0.017c0.059,0.469,0.218,0.919,0.54,1.256
					c0.114,0.144,0.247,0.275,0.412,0.385c0.548,0.367,1.251,0.443,1.841,0.114c0.637-0.356,0.884-1.043,0.93-1.732
					C308.23,219.796,307.985,218.591,307.127,218.15z"/>
				<path style="fill:#1C2A36;" d="M323.865,218.15c-0.222-0.154-0.48-0.258-0.753-0.295c-0.768-0.103-1.472,0.334-1.827,1.004
					c-0.314,0.594-0.26,1.253-0.111,1.886c0.001,0.006,0.003,0.011,0.004,0.017c0.059,0.469,0.218,0.919,0.54,1.256
					c0.114,0.144,0.248,0.275,0.412,0.385c0.548,0.367,1.251,0.443,1.841,0.114c0.637-0.356,0.884-1.043,0.93-1.732
					C324.968,219.796,324.723,218.591,323.865,218.15z"/>
				<path style="fill:#E3A17E;" d="M316.136,224.743c-0.618,0.188-1.28,0.402-1.885,0.125c-0.125-1.86,0.566-3.794,0.169-5.638
					c-0.08-0.37-0.575-0.303-0.686,0c-0.334,0.914-0.318,1.938-0.397,2.902c-0.07,0.857-0.478,2.342-0.174,3.155
					c0.458,1.226,2.508,0.96,3.378,0.418C317.035,225.398,316.724,224.565,316.136,224.743z"/>
				<path style="fill:#F1F1F1;" d="M318.527,227.503c-0.724,1.333-2.258,2.26-3.799,2.187c-1.503-0.071-2.31-1.035-3.208-2.107
					c-0.19-0.227-0.597-0.042-0.584,0.242c0.082,1.777,1.893,2.954,3.542,3.091c2.051,0.171,4.144-0.984,5.08-2.811
					C319.906,227.425,318.896,226.825,318.527,227.503z"/>
				<path style="fill:#E3A17E;" d="M298.313,222.697c-0.293-0.249-0.538-0.274-0.911-0.341c-0.447-0.081-0.863-0.241-1.245-0.49
					c-0.755-0.493-1.005-1.277-1.535-1.944c-0.164-0.206-0.561-0.095-0.605,0.16c-0.181,1.034,0.581,2.073,1.355,2.679
					c0.725,0.567,2.121,1.249,2.94,0.567C298.488,223.182,298.485,222.842,298.313,222.697z"/>
				<path style="fill:#E3A17E;" d="M334.979,219.635c-0.034-0.253-0.383-0.19-0.453,0c-0.238,0.649-1.025,1.383-1.513,1.87
					c-0.533,0.531-1.107,0.929-1.81,1.203c-0.692,0.27-0.437,1.337,0.314,1.138c0.97-0.257,1.793-0.906,2.409-1.685
					C334.501,221.433,335.11,220.604,334.979,219.635z"/>
				<path style="fill:#1C2A36;" d="M308.885,215.713c-0.725-1.025-1.876-1.575-3.135-1.442c-0.842,0.089-2.676,0.779-2.546,1.864
					c0.012,0.103,0.059,0.167,0.155,0.204c0.639,0.247,1.338-0.645,1.945-0.836c1.051-0.33,2.051,0.017,2.738,0.86
					C308.424,216.831,309.237,216.211,308.885,215.713z"/>
				<path style="fill:#1C2A36;" d="M325.855,216.151c-0.657-2.903-5.46-2.615-6.098,0.154c-0.07,0.305,0.295,0.529,0.527,0.307
					c0.675-0.648,1.236-1.331,2.219-1.477c1.176-0.175,1.876,0.493,2.5,1.376C325.303,216.934,325.976,216.686,325.855,216.151z"/>
				<path style="fill:#E3A17E;" d="M304.413,224.777c-0.382-0.062-0.807-0.05-1.227,0.025c-1.654,0.054-3.368,1.343-2.292,3.085
					c1.116,1.805,4.748,1.671,5.333-0.534C306.556,226.113,305.603,224.97,304.413,224.777z"/>
				<path style="fill:#E3A17E;" d="M326.729,224.777c-0.382-0.062-0.807-0.05-1.227,0.025c-1.654,0.054-3.368,1.343-2.292,3.085
					c1.115,1.805,4.748,1.671,5.333-0.534C328.873,226.113,327.92,224.97,326.729,224.777z"/>
			</g>
		</g>
	</g>
	<g>
		<g>
			<g>
				<path style="fill:#81B0AE;" d="M579.685,368.724c-12.344,0.606-24.72,0.251-37.001-1.066c-0.387-0.042-0.794-0.094-1.171-0.188
					c-0.324,0.031-0.648,0.063-0.972,0.084c-1.641,0.157-3.282,0.282-4.923,0.397c-1.003,0.063-2.017,0.125-3.021,0.188
					c-8.884,0.533-17.769,0.899-26.664,1.139c-5.707,0.157-11.414,0.261-17.121,0.314c-14.79,0.146-29.58,0.01-44.37-0.251
					c-0.314,0-0.638,0-0.951-0.01c-0.763,0.084-1.536,0.157-2.3,0.22c-11.414,1.097-22.901,1.359-34.346,0.805
					c-7.055-0.366-3.606-53.359-3.094-60.822c0.429-6.209,1.066-12.564,3.104-18.386c0.711-2.028,1.589-3.993,2.686-5.853
					c2.038-3.449,5.027-6.491,8.487-8.519c1.369-0.815,2.822-1.474,4.327-1.923c0.146-3.846,0.261-7.735,0.376-11.717
					c0.314-10.891,1.223-21.793,1.861-32.674c0.261-4.39,0.543-8.895,2.529-12.94c3.752-7.62,13.003-12.24,22.326-13.912
					c4.609-0.815,9.282-1.056,13.985-1.056c2.31,0,4.63,0.052,6.94,0.115c2.519,0.063,5.038,0.146,7.546,0.178
					c1.16,0.021,2.31,0.021,3.47,0.021c3.157,0,6.313-0.063,9.47-0.136c1.61-0.042,3.219-0.084,4.829-0.125
					c0.993-0.031,1.986-0.063,2.979-0.094c1.411-0.031,2.822-0.073,4.233-0.105c3.501-0.084,7.003-0.136,10.494-0.105
					c2.247,0.01,4.495,0.063,6.742,0.167c0.01,0,0.01,0,0.01,0c3.115,0.125,6.209,0.345,9.303,0.7
					c0.888,0.094,1.777,0.199,2.665,0.324c6.407,0.868,12.909,2.383,18.083,5.801c5.059,3.334,8.487,8.278,10.64,13.484
					c3.972,9.595,3.888,20.048,3.7,30.238c-0.125,6.219-0.272,12.428-0.439,18.647c-0.01,0.502-0.031,1.014-0.042,1.516
					c4.839,1.442,9.24,4.934,12.146,9.24c0.272,0.397,0.533,0.815,0.784,1.233c4.265,7.233,5.226,15.877,5.791,24.249
					C583.302,315.365,586.74,368.358,579.685,368.724z"/>
			</g>
			<g>
				<path style="fill:#6F9E98;" d="M576.717,281.385c-2.101-5.435-7.076-8.801-12.616-9.721c-1.369-0.241-2.77-0.324-4.17-0.251
					c-7.484,0.376-14.267,4.808-18.208,11.09c-1.756,2.812-2.927,5.864-3.752,9.041c-4.839-0.7-9.71-1.306-14.581-1.808
					c-11.623-1.212-23.309-1.85-35.005-1.913c-6.48-0.031-12.961,0.115-19.441,0.439c-2.049,0.094-4.108,0.219-6.156,0.355
					c-2.425,0.157-4.871,0.345-7.275,0.721c-0.502,0.073-1.003,0.157-1.495,0.261c-0.679,0.115-1.338,0.261-2.007,0.429
					c-1.996,0.502-4.777,1.223-6.543,2.717c-0.68-3.041-1.819-5.947-3.658-8.56c-4.223-5.968-11.654-9.47-18.971-8.623
					c-1.589,0.188-3.219,0.596-4.808,1.212c-5.947,2.31-11.236,7.463-11.288,13.985c0,0.157,0.042,0.282,0.115,0.387
					c0.251,0.366,0.878,0.397,1.16-0.042c3.606-5.665,8.205-11.142,15.407-11.696c6.919-0.533,13.536,3.397,16.379,9.7
					c3.083,6.846,2.195,15.051,1.986,22.347c-0.251,8.895-0.512,17.8-0.721,26.706c-0.125,5.122-0.24,10.243-0.366,15.375
					c-0.052,2.425-0.115,4.85-0.167,7.285c-0.063,2.603-0.345,5.278,0.188,7.839c0.084,0.366,0.24,0.659,0.47,0.889
					c0.763-0.063,1.537-0.136,2.3-0.22c0.314,0.01,0.638,0.01,0.951,0.01c0.157-0.188,0.272-0.418,0.345-0.679
					c0.596-2.289,0.46-4.693,0.512-7.034l0.188-8.09c0.115-5.132,0.24-10.254,0.355-15.375c0.146-6.125,0.261-12.25,0.376-18.375
					c6.982,0.941,14.121,0.721,21.187,0.732c4.714,0.01,9.439,0.01,14.152,0.021c2.864,0,5.728,0.01,8.592,0.01
					c4.975,0.011,9.951,0,14.926-0.021c2.101,0,4.202-0.01,6.303-0.031c6.7-0.021,13.389-0.063,20.079-0.115
					c1.16,0,2.31-0.01,3.47-0.021c-0.199,4.045-0.334,8.101-0.397,12.146c-0.01,0.669-0.021,1.327-0.031,1.996
					c-0.073,6.177,0,12.355,0.219,18.521c0.178,4.745,0.429,9.491,0.763,14.226c0.021,0.251,0.063,0.491,0.136,0.7
					c1.641-0.115,3.282-0.24,4.923-0.397c0-0.094,0-0.199-0.01-0.303c-0.397-5.352-0.69-10.714-0.868-16.076
					c-0.125-3.627-0.199-7.254-0.219-10.891c0-0.01,0-0.01,0-0.01c-0.052-8.132,0.146-16.243,0.606-24.364
					c0.753-13.264,0.24-32.872,15.031-38.893c7.118-2.906,15.051-0.22,20.162,5.226c0.261,0.272,0.638,0.303,0.962,0.178
					C576.591,282.252,576.894,281.845,576.717,281.385z M530.246,315.762h-0.01c-6.94-0.073-13.87-0.146-20.811-0.199
					c-1.516-0.021-3.031-0.031-4.547-0.042c-4.913-0.031-9.815-0.063-14.727-0.073c-3.052,0-6.094-0.01-9.146-0.021
					c-4.536-0.01-9.073-0.021-13.599-0.031c-7.045-0.01-14.152-0.261-21.114,0.648c0.042-2.613,0.094-5.216,0.136-7.829
					c0.073-3.92,0.136-8.048-0.366-12.062c1.296-0.178,2.571-0.909,3.794-1.306c0.763-0.261,1.536-0.481,2.31-0.68
					c0.355-0.094,0.711-0.178,1.066-0.261c0.387-0.084,0.784-0.167,1.181-0.24c2.812-0.502,5.686-0.711,8.54-0.889h0.01
					c0.742-0.042,1.474-0.084,2.216-0.125c8.132-0.47,16.274-0.669,24.406-0.575c11.696,0.125,23.361,0.836,34.973,2.122
					c4.181,0.449,8.351,0.983,12.512,1.589c-0.575,3.334-0.878,6.721-1.16,10.034c-0.293,3.324-0.533,6.658-0.732,9.992
					C533.528,315.794,531.897,315.773,530.246,315.762z"/>
				<path style="fill:#6F9E98;" d="M513.573,234.446c-1.182,1.31-2.357,2.648-3.276,4.116c-1.237,1.975,1.526,3.973,3.155,2.434
					c1.066-1.007,2.002-2.199,2.903-3.408c1.758,2.148,4.733,5.761,6.94,3.554c2.373-2.373-1.99-5.776-3.939-7.489
					c1.113-1.402,2.216-2.85,2.921-4.457c0.482-1.099-0.614-2.729-1.859-1.859c-1.453,1.015-2.665,2.335-3.831,3.683
					c-0.755-0.709-1.522-1.405-2.321-2.067c-1.229-1.019-2.53-2.277-4.192-2.29c-0.504-0.004-0.909,0.424-0.918,0.918
					c-0.033,1.666,1.221,3.019,2.213,4.269C512.076,232.74,512.818,233.599,513.573,234.446z"/>
				<path style="fill:#6F9E98;" d="M513.573,266.28c-1.182,1.31-2.357,2.648-3.276,4.116c-1.237,1.974,1.526,3.973,3.155,2.434
					c1.066-1.007,2.002-2.199,2.903-3.408c1.758,2.148,4.733,5.761,6.94,3.554c2.373-2.373-1.99-5.776-3.939-7.489
					c1.113-1.402,2.216-2.85,2.921-4.457c0.482-1.099-0.614-2.729-1.859-1.859c-1.453,1.015-2.665,2.334-3.831,3.683
					c-0.755-0.709-1.522-1.405-2.321-2.067c-1.229-1.019-2.53-2.277-4.192-2.29c-0.504-0.004-0.909,0.424-0.918,0.918
					c-0.033,1.666,1.221,3.019,2.213,4.27C512.076,264.574,512.818,265.433,513.573,266.28z"/>
				<path style="fill:#6F9E98;" d="M465.415,234.446c-1.182,1.31-2.357,2.648-3.276,4.116c-1.237,1.975,1.526,3.973,3.155,2.434
					c1.066-1.007,2.002-2.199,2.903-3.408c1.757,2.148,4.733,5.761,6.94,3.554c2.373-2.373-1.99-5.776-3.939-7.489
					c1.113-1.402,2.216-2.85,2.921-4.457c0.482-1.099-0.614-2.729-1.859-1.859c-1.453,1.015-2.665,2.335-3.831,3.683
					c-0.755-0.709-1.522-1.405-2.321-2.067c-1.229-1.019-2.53-2.277-4.192-2.29c-0.504-0.004-0.909,0.424-0.918,0.918
					c-0.033,1.666,1.221,3.019,2.213,4.269C463.917,232.74,464.66,233.599,465.415,234.446z"/>
				<path style="fill:#6F9E98;" d="M465.415,266.28c-1.182,1.31-2.357,2.648-3.276,4.116c-1.237,1.974,1.526,3.973,3.155,2.434
					c1.066-1.007,2.002-2.199,2.903-3.408c1.757,2.148,4.733,5.761,6.94,3.554c2.373-2.373-1.99-5.776-3.939-7.489
					c1.113-1.402,2.216-2.85,2.921-4.457c0.482-1.099-0.614-2.729-1.859-1.859c-1.453,1.015-2.665,2.334-3.831,3.683
					c-0.755-0.709-1.522-1.405-2.321-2.067c-1.229-1.019-2.53-2.277-4.192-2.29c-0.504-0.004-0.909,0.424-0.918,0.918
					c-0.033,1.666,1.221,3.019,2.213,4.27C463.917,264.574,464.66,265.433,465.415,266.28z"/>
			</g>
		</g>
		<g>
			<path style="fill:#1C2A36;" d="M514.136,151.299c3.877,3.45,6.256,8.408,7.043,13.538c0.293,1.909,0.38,3.858,0.895,5.719
				c1.26,4.554,5.015,8.4,5.04,13.125c0.016,3.118-1.64,6.076-1.547,9.193c0.093,3.146,1.93,5.926,3.257,8.781
				c2.162,4.65,2.937,10.443,0.099,14.713c-2.042,3.072-5.613,4.82-9.209,5.646c-5.412,1.243-11.408,0.597-15.982-2.552
				c-1.37-0.943-2.615-2.118-3.406-3.581c-0.635-1.174-0.957-2.491-1.21-3.802c-0.487-2.525-0.744-5.104-0.616-7.672
				c0.342-6.863,3.375-13.254,6.016-19.597c2.641-6.343,4.974-13.193,3.828-19.968c-0.717-4.237-2.82-8.227-5.909-11.213
				c-2.184-2.111-6.118-6.838-0.585-6.912C506.361,146.655,510.762,148.296,514.136,151.299z"/>
			<path style="fill:#1C2A36;" d="M489.174,146.048c-4.397,1.669-7.993,5.509-9.49,10.137c-0.416,1.284-0.682,2.631-1.283,3.833
				c-1.076,2.15-3.082,3.582-4.834,5.176c-3.365,3.06-6.099,7.355-5.932,12.001c0.088,2.446,0.958,4.989,0.09,7.267
				c-0.69,1.809-2.322,3.001-3.531,4.485c-2.229,2.736-2.993,6.693-1.951,10.105c0.488,1.599,1.35,3.12,1.374,4.8
				c0.039,2.646-1.973,4.829-2.631,7.388c-0.951,3.698,1.176,7.666,4.212,9.793c3.037,2.127,6.791,2.779,10.435,3.159
				c5.171,0.539,10.728,0.545,15.158-2.315c1.151-0.743,2.216-1.69,2.89-2.915c0.857-1.556,1.013-3.409,1.15-5.195
				c1.038-13.494,2.075-26.988,3.113-40.482c0.438-5.702,0.886-11.455,2.465-16.937c0.799-2.773,3.833-8.005,0.533-9.82
				C497.479,144.626,492.789,144.676,489.174,146.048z"/>
			<g>
				<g>
					<g>
						<path style="fill:#3A5074;" d="M538.258,275.524c-1.463,4.237-6.289,8.231-10.916,7.8
							c-6.528-0.609-12.776-10.428-15.58-15.664c-2.113-3.945-8.224-3.547-12.423-5.089c-2.579-0.951-5.306-1.714-8.04-1.449
							c-2.62,0.257-1.783,15.717-4.138,16.888c-9.485,4.714-18.986,9.742-26.704,16.998c-0.996,0.939-2.008,1.943-3.306,2.392
							c-1.298,0.449-2.975,0.139-3.628-1.065c-0.388-0.71-0.347-1.571-0.286-2.383c0.408-5.147,2.139-7.399,3.547-12.366
							c-3.53,1.094-8.138-4.604-9.391-8.081c-1.249-3.481-0.629-7.326,0.118-10.95c2.339-11.415,5.722-22.59,9.101-33.748
							c1.379-4.555,2.759-9.109,4.355-13.59c1.065-3,2.257-6.008,4.212-8.513c2.09-2.677,5.052-4.657,8.493-4.693
							c2.441-0.029,4.865-0.237,7.281-0.522c4.938-0.588,9.856-1.494,14.852-1.824c6.089-0.408,12.268-0.229,18.235,1.057
							c1.926,0.412,3.828,0.939,5.697,1.6c4.322,1.526,8.53,3.84,11.289,7.501c2.122,2.816,3.257,6.253,4.028,9.693
							c0.931,4.171,1.375,8.436,1.767,12.693c1.106,12.019,1.816,24.075,2.126,36.144
							C539.009,270.765,539.046,273.242,538.258,275.524z"/>
						<g>
							<path style="fill:#2F445D;" d="M533.331,263.635c-1.498-2.299-3.642-4.087-5.862-5.66c-2.669-1.891-5.538-3.833-8.51-5.203
								c-0.468-0.216-1.055,0.382-0.597,0.774c2.214,1.894,4.796,3.349,7.197,4.992c2.521,1.726,4.676,3.641,6.654,5.961
								C532.735,265.112,533.771,264.31,533.331,263.635z"/>
							<path style="fill:#2F445D;" d="M524.06,237.761c-0.59-3.196-1.293-6.369-2.1-9.518c-0.666-2.597-1.15-6.07-2.891-8.187
								c-0.099-0.121-0.265-0.01-0.278,0.115c-0.264,2.696,1.11,5.852,1.731,8.469c0.721,3.037,1.35,6.098,1.9,9.17
								c1.133,6.329,1.868,12.723,2.235,19.141c0.061,1.071,1.735,1.078,1.674,0C525.968,250.511,525.231,244.105,524.06,237.761z"
								/>
							<path style="fill:#2F445D;" d="M476.875,252.222c-2.075-0.221-4.38,0.434-6.391,0.909c-2.373,0.56-4.694,1.327-6.95,2.25
								c-1.994,0.817-3.939,1.752-5.788,2.863c-1.638,0.984-3.645,2.132-4.746,3.732c-0.074,0.108,0.049,0.253,0.167,0.218
								c1.753-0.52,3.354-1.737,4.97-2.591c2.097-1.109,4.239-2.129,6.459-2.97c1.954-0.74,3.954-1.347,5.983-1.844
								c2.109-0.517,4.427-0.594,6.469-1.28C477.778,253.264,477.602,252.299,476.875,252.222z"/>
							<path style="fill:#2F445D;" d="M473.969,221.068c-2.283,5.173-3.688,10.854-5.012,16.337
								c-1.387,5.74-2.606,11.569-3.41,17.422c-0.129,0.94,1.287,1.373,1.457,0.402c1.001-5.709,2.015-11.394,3.357-17.036
								c1.338-5.623,3.136-11.167,4.334-16.818C474.782,220.962,474.161,220.633,473.969,221.068z"/>
						</g>
					</g>
					<path style="fill:#E8B390;" d="M514.04,200.719c-3.571,8.889-7.914,17.692-15.309,23.671c-0.6,0.482-1.294,0.972-2.061,0.923
						c-0.526-0.037-0.996-0.318-1.437-0.604c-4.33-2.845-7.661-7.044-10.007-11.664c-1.379-2.718-2.441-5.591-3.285-8.522
						c-0.237-0.816-0.677-1.922-0.988-3.036c4.938-0.588,9.856-1.494,14.852-1.824C501.895,199.253,508.074,199.433,514.04,200.719z
						"/>
				</g>
				<g>
					<path style="fill:#3A5074;" d="M488.497,383.973c-0.027,2.413,0.104,5.095,1.811,6.8c1.96,1.959,5.168,1.801,7.862,1.149
						c1.197-0.29,2.406-0.663,3.389-1.406c1.958-1.478,2.64-4.099,2.882-6.541c0.283-2.86,0.144-5.773,0.77-8.578
						c0.255-1.141,0.635-2.256,0.779-3.416c0.341-2.738-0.652-5.446-1.628-8.026c-0.44-1.164-0.88-2.328-1.32-3.491
						c-0.413-1.093-0.874-2.25-1.823-2.933c-1.217-0.876-2.868-0.724-4.354-0.515c-2.107,0.297-5.834,0.176-7.629,1.497
						c-1.763,1.297-0.586,4.96-0.51,6.815C488.979,371.544,488.566,377.759,488.497,383.973z"/>
					<path style="fill:#3A5074;" d="M534.267,332.093c1.414,2.389,3.049,4.641,4.493,7.012c1.197,1.965,2.281,4.069,2.554,6.353
						c0.272,2.284-0.403,4.795-2.203,6.228c-1.013,0.806-2.303,1.214-3.593,1.316c-3.12,0.246-6.193-1.244-8.443-3.421
						c-2.249-2.176-3.779-4.984-5.075-7.833c-1.957-4.301-3.462-8.808-4.482-13.421c-0.073-0.33-0.142-0.683-0.024-1
						c0.12-0.321,0.409-0.544,0.687-0.745c1.782-1.294,3.672-2.484,5.763-3.174c2.084-0.687,5.311-1.392,6.454,0.884
						C531.704,326.893,532.777,329.576,534.267,332.093z"/>
					<path style="fill:#F1CD73;" d="M452.277,293.966c6.027-9.408,14.276-17.321,22.469-25.114
						c6.439-6.126,13.197-12.423,21.796-15.292c2.254-0.752,4.669-1.255,7.03-0.905c4.963,0.737,8.476,4.984,10.757,9.234
						c3.32,6.189,5.133,12.99,6.916,19.726c3.965,14.989,7.904,29.984,11.844,44.98c0.106,0.403,0.208,0.848,0.009,1.218
						c-0.136,0.254-0.393,0.427-0.642,0.587c-4.564,2.927-9.917,4.733-15.403,5.198c-5.046-10.955-9.455-22.175-13.199-33.591
						c1.91,21.394,1.578,43.177,1.602,64.648c0.001,0.473-0.004,0.965-0.226,1.388c-0.385,0.735-1.297,1.051-2.133,1.262
						c-5.819,1.471-8.682,1.096-14.158,0.533c-0.904-0.093-1.626-0.759-1.744-1.615c-2.584-18.729-4.938-38.228-6.859-57.274
						c-1.094,1.267-2.53,2.659-4.044,3.445c-2.66,1.382-5.546,2.463-8.566,2.717c-5.544,0.467-11.259-2.108-14.385-6.481
						C450.214,304.259,449.385,298.481,452.277,293.966z"/>
				</g>
			</g>
			<g>
				<g>
					<path style="fill:#E4E4E4;" d="M478.79,215.46c6.115,2.263,10.825,6.544,15.351,10.711c1.035,0.953,2.087,1.928,2.713,3.11
						c-3.009,0.811-6.159-0.612-8.872-1.985c-2.752-1.392-7.367-2.809-9.489-4.831C477.239,221.271,478.877,215.497,478.79,215.46z"
						/>
					<path style="fill:#E4E4E4;" d="M513.62,215.991c-6.286,1.894-11.336,5.884-16.192,9.772c-1.11,0.889-2.24,1.799-2.961,2.942
						c2.935,0.988,6.194-0.245,9.014-1.453c2.859-1.225,7.58-2.365,9.862-4.256C514.69,221.88,513.53,216.023,513.62,215.991z"/>
					<path style="fill:#C54A2C;" d="M493.482,227.592c0.783,0.389,1.613,0.789,2.519,0.793c0.768,0.004,1.493-0.279,2.188-0.556
						c6.169-2.454,12.389-4.771,18.522-7.295c0.486-0.2,0.983-0.403,1.52-0.452c4.984-0.456,3.648,17.208,3.721,19.693
						c0.042,1.416,0.079,2.865-0.435,4.213c-1.176,3.084-6.54,4.827-9.653,6.213c-4.244,1.89-8.624,3.555-12.837,5.495
						c-0.439,0.202-0.897,0.407-1.395,0.427c-0.619,0.025-1.198-0.238-1.74-0.494c-7.136-3.361-12.148-6.27-19.284-9.63
						c-0.467-0.22-0.947-0.449-1.286-0.799c-0.522-0.54-0.633-1.279-0.716-1.975c-0.902-7.505-1.089-15.073-0.559-22.604
						c0.257-3.653,6.433,0.964,8.288,1.885C486.05,224.351,489.766,225.746,493.482,227.592z"/>
					<path style="fill:#AB4126;" d="M498.905,240.987c-0.09-2.224-0.158-4.449-0.202-6.674c-0.039-1.977,0.265-4.255-0.962-6.001
						c-0.545-0.776-1.94-0.926-2.533-0.086c-1.255,1.78-0.973,3.918-0.955,5.936c0.021,2.372,0.068,4.744,0.141,7.116
						c0.142,4.605,0.207,9.269,0.796,13.851c0.279,2.175,4.569,1.818,4.516-0.365C499.595,250.173,499.092,245.579,498.905,240.987z
						"/>
					<path style="fill:#F1F1F1;" d="M516.483,218.75c-3.474,1.412-6.949,2.824-10.423,4.236c-1.736,0.706-3.468,1.42-5.197,2.139
						c-1.371,0.57-3.675,2.057-5.184,2.157c-1.363,0.091-3.231-1.372-4.342-1.959c-1.76-0.929-3.507-1.88-5.281-2.789
						c-2.986-1.531-6.168-3.497-9.581-4.216c-1.628-0.343-2.614,1.278-1.573,2.299c2.711,2.661,7.063,4.46,10.566,6.266
						c1.772,0.913,3.544,1.826,5.316,2.739c1.457,0.751,2.883,1.687,4.658,1.64c1.866-0.049,3.727-1.176,5.325-1.87
						c1.867-0.81,3.739-1.614,5.6-2.434c4.031-1.776,8.051-3.572,12.076-5.359C520.674,220.61,518.713,217.843,516.483,218.75z"/>
				</g>
				<path style="fill:#E8B390;" d="M472.99,254.369c0.202,0.737,0.55,1.437,0.94,2.092c0.674,1.132,1.204,2.651,2.804,2.285
					c3.399-0.777,6.77-2.609,9.385-4.901c0.547-0.479,1.07-0.98,1.66-1.403c0.72-0.51,1.523-0.89,2.254-1.384
					c0.94-0.64,1.748-1.473,2.358-2.434c0.206-0.326,0.387-0.765,0.163-1.078c-0.279-0.389-0.885-0.226-1.323-0.024
					c-1.018,0.478-2.036,0.956-3.054,1.434c0.669-0.598,1.339-1.197,2.012-1.793c0.491-0.44,1.001-1.202,0.533-1.663
					c-0.326-0.325-0.868-0.184-1.291-0.004c-1.292,0.536-2.531,1.205-3.691,1.991c0.904-0.847,1.813-1.691,2.718-2.537
					c0.282-0.263,0.589-0.6,0.512-0.977c-0.069-0.34-0.448-0.546-0.796-0.544c-0.347,0.005-0.671,0.166-0.983,0.329
					c-1.205,0.616-2.41,1.235-3.615,1.851c0.875-0.74,1.746-1.48,2.62-2.224c0.473-0.401,0.94-1.199,0.417-1.533
					c-0.228-0.144-0.524-0.085-0.789-0.018c-0.685,0.17-1.374,0.343-2.043,0.567c-2.897,0.958-5.441,2.89-7.207,5.37
					c-0.733,1.03-1.164,2.314-2.014,3.248c-0.763,0.838-1.785,0.757-1.753,2.145C472.817,253.575,472.883,253.977,472.99,254.369z"
					/>
				<path style="fill:#E8B390;" d="M519.41,254.369c-0.202,0.737-0.55,1.437-0.94,2.092c-0.674,1.132-1.204,2.651-2.804,2.285
					c-3.399-0.777-6.77-2.609-9.385-4.901c-0.547-0.479-1.07-0.98-1.66-1.403c-0.72-0.51-1.523-0.89-2.254-1.384
					c-0.939-0.64-1.747-1.473-2.358-2.434c-0.206-0.326-0.387-0.765-0.163-1.078c0.279-0.389,0.885-0.226,1.323-0.024
					c1.018,0.478,2.036,0.956,3.054,1.434c-0.669-0.598-1.339-1.197-2.013-1.793c-0.49-0.44-1-1.202-0.533-1.663
					c0.326-0.325,0.868-0.184,1.291-0.004c1.292,0.536,2.531,1.205,3.691,1.991c-0.904-0.847-1.813-1.691-2.718-2.537
					c-0.282-0.263-0.589-0.6-0.512-0.977c0.069-0.34,0.448-0.546,0.796-0.544c0.347,0.005,0.671,0.166,0.983,0.329
					c1.205,0.616,2.41,1.235,3.615,1.851c-0.875-0.74-1.746-1.48-2.62-2.224c-0.472-0.401-0.94-1.199-0.417-1.533
					c0.228-0.144,0.525-0.085,0.789-0.018c0.686,0.17,1.374,0.343,2.043,0.567c2.897,0.958,5.441,2.89,7.207,5.37
					c0.733,1.03,1.164,2.314,2.014,3.248c0.763,0.838,1.785,0.757,1.753,2.145C519.584,253.575,519.518,253.977,519.41,254.369z"/>
			</g>
			<g>
				<g>
					<g>
						<path style="fill:#E8B390;" d="M481.018,183.469c0.646,4.184,1.89,8.561,5.065,11.362c1.987,1.752,4.575,2.72,7.197,3.099
							c7.312,1.056,15.252-2.822,18.35-9.528c1.756-3.801,1.949-8.104,2.322-12.274c0.354-3.956,0.89-7.982,0.057-11.866
							c-1.61-7.508-8.812-13.427-16.49-13.55c-5.022-0.081-9.917,2.326-13.211,6.064c-4.036,4.58-4.268,9.319-4.164,15.142
							C480.212,175.78,480.428,179.647,481.018,183.469z"/>
						<path style="fill:#E8B390;" d="M475.654,177.574c-0.504,0.675-0.756,1.516-0.815,2.356c-0.13,1.857,0.701,3.756,2.155,4.919
							c0.655,0.524,1.416,0.899,2.169,1.268c0.532,0.261,1.075,0.524,1.66,0.62c0.585,0.096,1.229,0.002,1.678-0.385
							c0.467-0.403,0.646-1.044,0.738-1.654c0.291-1.936-0.068-5.19-1.307-6.853C480.451,175.858,477.207,175.491,475.654,177.574z"
							/>
						<path style="fill:#E8B390;" d="M517.787,177.574c0.504,0.675,0.756,1.516,0.815,2.356c0.13,1.857-0.701,3.756-2.155,4.919
							c-0.656,0.524-1.416,0.899-2.169,1.268c-0.532,0.261-1.075,0.524-1.66,0.62c-0.585,0.096-1.229,0.002-1.678-0.385
							c-0.467-0.403-0.646-1.044-0.738-1.654c-0.291-1.936,0.068-5.19,1.307-6.853C512.99,175.858,516.234,175.491,517.787,177.574z
							"/>
					</g>
					<g>
						<path style="fill:#1C2A36;" d="M492.784,164.463c0.328,0.885,1.246,1.454,2.18,1.587c0.934,0.134,1.883-0.101,2.771-0.421
							c3.571-1.288,6.501-3.933,8.913-6.864c1.352-1.642,2.618-3.511,2.772-5.633c0.167-2.298-1.069-4.57-2.913-5.951
							c-1.844-1.38-4.219-1.932-6.521-1.85c-6.113,0.217-11.285,4.518-15.355,9.083c-3.784,4.245-7.165,9.092-8.348,14.654
							c-0.294,1.38-1.208,5.315,0.662,5.766c1.428,0.345,4.788-1.786,6.03-2.445c1.891-1.003,3.685-2.189,5.349-3.538
							C488.897,168.385,493.03,165.127,492.784,164.463z"/>
						<path style="fill:#1C2A36;" d="M510.529,172.479c1.951,1.556,4.198,2.957,6.771,3.307c0.285,0.039,0.594,0.06,0.843-0.071
							c0.212-0.112,0.341-0.316,0.446-0.516c0.568-1.09,0.677-2.325,0.72-3.529c0.13-3.705-0.298-7.451-1.595-10.967
							c-1.297-3.516-3.491-6.798-6.563-9.249c-1.502-1.198-3.258-2.212-5.228-2.54c-1.969-0.328-4.175,0.128-5.512,1.478
							c-2.516,2.54-0.811,6.424,0.325,9.175c1.313,3.179,3.181,6.169,5.511,8.827C507.538,169.866,508.971,171.236,510.529,172.479z
							"/>
					</g>
					<path style="fill:#E8B390;" d="M490.643,212.613c-0.005,0.242-0.006,0.499,0.147,0.708c0.221,0.301,0.686,0.411,1.11,0.486
						c3.479,0.617,7.126,0.611,10.603-0.015c0.433-8.791,0.589-17.591,0.466-26.388c-2.858-0.59-7.862-1.314-10.666-0.238
						c-2.225,0.853-1.226,5.307-1.267,7.22C490.904,200.46,490.774,206.536,490.643,212.613z"/>
				</g>
				<path style="fill:#1C2A36;" d="M490.01,177.46c-0.211-0.146-0.457-0.245-0.716-0.28c-0.731-0.098-1.4,0.318-1.737,0.955
					c-0.299,0.565-0.247,1.192-0.105,1.794c0.001,0.005,0.003,0.011,0.004,0.016c0.056,0.446,0.207,0.874,0.514,1.194
					c0.108,0.137,0.235,0.262,0.392,0.366c0.521,0.349,1.19,0.421,1.75,0.108c0.606-0.338,0.841-0.992,0.885-1.647
					C491.059,179.026,490.826,177.88,490.01,177.46z"/>
				<path style="fill:#1C2A36;" d="M505.927,177.46c-0.211-0.146-0.457-0.245-0.716-0.28c-0.73-0.098-1.4,0.318-1.737,0.955
					c-0.299,0.565-0.247,1.192-0.105,1.794c0.001,0.005,0.003,0.011,0.004,0.016c0.056,0.446,0.207,0.874,0.514,1.194
					c0.108,0.137,0.235,0.262,0.392,0.366c0.521,0.349,1.19,0.421,1.75,0.108c0.606-0.338,0.841-0.992,0.885-1.647
					C506.976,179.026,506.743,177.88,505.927,177.46z"/>
				<path style="fill:#E3A17E;" d="M498.577,183.73c-0.588,0.178-1.217,0.382-1.792,0.119c-0.119-1.769,0.538-3.608,0.161-5.361
					c-0.076-0.352-0.546-0.288-0.652,0c-0.318,0.869-0.303,1.842-0.377,2.76c-0.067,0.815-0.455,2.227-0.166,3
					c0.435,1.166,2.385,0.913,3.212,0.397C499.432,184.353,499.136,183.561,498.577,183.73z"/>
				<path style="fill:#F1F1F1;" d="M500.851,186.355c-0.689,1.267-2.147,2.149-3.613,2.08c-1.429-0.068-2.196-0.985-3.051-2.003
					c-0.181-0.216-0.568-0.04-0.555,0.23c0.078,1.69,1.8,2.809,3.368,2.939c1.95,0.162,3.941-0.936,4.831-2.673
					C502.163,186.281,501.202,185.71,500.851,186.355z"/>
				<path style="fill:#E3A17E;" d="M480.812,181.784c-0.279-0.237-0.512-0.26-0.866-0.325c-0.425-0.078-0.821-0.23-1.184-0.466
					c-0.718-0.469-0.955-1.214-1.46-1.849c-0.156-0.196-0.533-0.09-0.576,0.152c-0.172,0.983,0.552,1.971,1.289,2.548
					c0.689,0.539,2.017,1.188,2.796,0.539C480.978,182.245,480.975,181.923,480.812,181.784z"/>
				<path style="fill:#E3A17E;" d="M516.904,178.872c-0.033-0.241-0.364-0.18-0.43,0c-0.227,0.618-0.975,1.315-1.439,1.778
					c-0.507,0.505-1.053,0.884-1.722,1.144c-0.658,0.256-0.416,1.272,0.298,1.082c0.922-0.245,1.705-0.862,2.291-1.602
					C516.449,180.583,517.029,179.794,516.904,178.872z"/>
				<path style="fill:#1C2A36;" d="M491.682,175.143c-0.689-0.975-1.784-1.498-2.981-1.372c-0.8,0.085-2.545,0.74-2.421,1.773
					c0.012,0.097,0.056,0.158,0.147,0.194c0.608,0.235,1.272-0.614,1.85-0.795c0.999-0.314,1.95,0.017,2.604,0.818
					C491.243,176.206,492.016,175.617,491.682,175.143z"/>
				<path style="fill:#1C2A36;" d="M507.82,175.559c-0.625-2.761-5.193-2.486-5.799,0.146c-0.067,0.29,0.28,0.503,0.501,0.292
					c0.642-0.616,1.176-1.266,2.111-1.405c1.118-0.167,1.784,0.469,2.377,1.309C507.295,176.304,507.935,176.068,507.82,175.559z"/>
				<path style="fill:#E3A17E;" d="M487.428,183.762c-0.363-0.059-0.767-0.048-1.167,0.023c-1.573,0.051-3.203,1.277-2.179,2.934
					c1.061,1.717,4.515,1.589,5.072-0.508C489.467,185.033,488.561,183.946,487.428,183.762z"/>
				<path style="fill:#E3A17E;" d="M508.651,183.762c-0.363-0.059-0.767-0.048-1.167,0.023c-1.573,0.051-3.203,1.277-2.179,2.934
					c1.061,1.717,4.515,1.589,5.072-0.508C510.689,185.033,509.783,183.946,508.651,183.762z"/>
			</g>
		</g>
	</g>
	<g>
		<path style="fill:#1C2A36;" d="M154.65,240.121c0.404,1.546,0.998,3.126,0.7,4.696c-0.251,1.321-1.1,2.433-1.851,3.548
			c-2.127,3.161-3.629,6.741-4.394,10.473c-0.409,1.996-0.602,4.11,0.049,6.041c0.651,1.931,2.316,3.632,4.347,3.798
			c-1.896,3.334-2.193,7.533-0.784,11.101c1.408,3.568,4.493,6.432,8.155,7.572c3.883,1.209,8.129,0.514,11.952-0.873
			c4.05-1.469,7.876-3.749,10.682-7.018c4.978-5.799,6.177-13.896,6.498-21.532c0.426-10.132-0.347-20.388-3.213-30.116
			c-1.049-3.56-2.462-7.174-5.182-9.698c-3.577-3.319-9.035-4.182-13.708-2.779C157.728,218.389,152.018,230.051,154.65,240.121z"/>
		<g>
			<path style="fill:#F1CD73;" d="M201.036,339.618c-0.607,2.521-1.258,5.109-0.914,7.68c0.253,1.904,1.049,3.731,1.068,5.651
				c0.036,2.956-1.81,5.676-4.169,7.455c-2.364,1.775-5.209,2.766-7.999,3.732c-7.481-19.77-14.64-30.023-32.274-41.682
				c-2.33-1.536-4.034-3.962-6.164-5.764c-0.43-0.36-0.881-0.763-1.008-1.307c-0.139-0.604,0.163-1.214,0.448-1.76
				c2.677-5.064,5.349-10.129,8.021-15.194c5.705-10.813,4.058-26.481,15.106-34.382c5.677-4.082,12.461-7.262,18.775-7.477
				c2.508-0.085,4.939,0.3,7.198,1.289c3.408,1.475,6.42,4.319,8.708,8.965c4.679,9.515,1.623,22.485,0.432,32.654
				C206.683,312.972,204.191,326.421,201.036,339.618z"/>
			<path style="fill:#E8B390;" d="M199.125,257.86c-3.194,6.658-9.336,11.808-16.284,14.47c-2.543,0.973-5.665,1.562-7.789-0.142
				c-2.303-1.847-2.303-5.379-1.9-8.14c5.677-4.082,12.461-7.262,18.775-7.477C194.436,256.486,196.867,256.87,199.125,257.86z"/>
			<path style="fill:#EBB638;" d="M200.104,271.734c-5.179-0.762-8.176,4.071-10.165,8.082c-2.514,5.068-4.218,10.495-5.71,15.937
				c-0.759,2.769-1.461,5.552-2.192,8.328c-0.206,0.781-0.531,3.642-1.191,4.03c-0.66,0.388-3.405-0.889-4.174-1.136
				c-6.109-1.959-12.021-4.457-17.708-7.424c-0.984-0.513-1.905,0.955-0.916,1.47c5.319,2.768,10.829,5.154,16.518,7.056
				c1.47,0.492,2.951,0.951,4.441,1.381c0.748,0.216,1.762,0.684,2.566,0.359c1.559-0.631,1.731-3.857,2.099-5.236
				c1.545-5.797,2.972-11.64,5.026-17.285c1.891-5.198,4.762-14.163,11.379-14.59C200.709,272.666,200.721,271.825,200.104,271.734z
				"/>
			<path style="fill:#EBB638;" d="M206.509,302.601c-0.012-0.127-0.18-0.196-0.253-0.07c-1.311,2.254-1.785,5.072-2.828,7.478
				c-1.023,2.36-2.221,4.626-3.618,6.786c-1.359,2.103-2.94,4.232-5.212,5.416c-2.772,1.446-6.196,1.037-9.13,0.393
				c-5.255-1.153-10.319-3.418-15.315-5.367c-5.575-2.175-11.096-4.477-16.643-6.72c-1.179-0.477-1.67,1.4-0.535,1.887
				c6.18,2.652,12.466,5.077,18.755,7.458c5.603,2.121,11.414,4.685,17.493,4.885c5.017,0.166,8.516-2.23,11.246-6.286
				c1.516-2.253,2.78-4.694,3.822-7.2C205.359,308.701,206.766,305.412,206.509,302.601z"/>
		</g>
		<g>
			<g>
				<path style="fill:#E8B390;" d="M167.339,251.095c3.818,4.577,9.177,7.048,15.368,5.705c3.843-0.834,7.39-2.98,9.911-5.998
					c1.015-1.214,1.872-2.575,2.407-4.064c1.057-2.944,0.797-6.194,0.238-9.272c-1.007-5.546-2.943-10.922-5.704-15.836
					c-2.681-4.771-5.95-8.508-11.437-9.804c-4.926-1.164-10.39-0.28-14.516,2.715c-5.928,4.303-6.097,10.514-4.559,17.097
					c1.437,6.151,3.387,12.41,6.963,17.689C166.429,249.946,166.873,250.536,167.339,251.095z"/>
				<path style="fill:#E8B390;" d="M176.952,269.594c1.982,1.02,4.315,0.528,6.394-0.244c5.023-1.866,9.738-5.476,12.224-10.751
					c0.178-0.379,0.349-0.783,0.346-1.21c-0.003-0.459-0.203-0.881-0.399-1.281c-2.116-4.317-4.378-8.541-6.779-12.662
					c-0.509-0.874-6.57,3.213-7.209,3.723c-2.874,2.298-1.85,3.125-1.136,6.465C181.57,259.129,180.311,265.328,176.952,269.594z"/>
				<path style="fill:#1C2A36;" d="M160.526,207.752c-4.98,3.504-8.727,8.724-10.455,14.563c-0.858,2.9-1.14,6.305,0.704,8.701
					c1.775,2.306,5.093,2.966,7.93,2.319c2.837-0.648,5.297-2.368,7.612-4.13c5.95-4.528,17.567-13.894,14.37-22.673
					C177.805,198.615,164.953,204.636,160.526,207.752z"/>
				<g>
					<path style="fill:#1C2A36;" d="M167.305,239.63c0-0.407-0.159-0.793-0.334-1.152c-0.132-0.272-0.305-0.544-0.525-0.751
						c-0.411-0.387-0.956-0.563-1.509-0.409c-0.566,0.158-0.959,0.623-1.053,1.194c-0.099,0.604,0.13,1.33,0.418,1.861
						c0.338,0.624,1.05,0.915,1.686,0.781C166.697,241.048,167.304,240.43,167.305,239.63z"/>
					<path style="fill:#1C2A36;" d="M178.433,234.905c0-0.407-0.159-0.793-0.334-1.152c-0.132-0.272-0.305-0.544-0.525-0.751
						c-0.411-0.387-0.957-0.563-1.509-0.409c-0.566,0.158-0.959,0.623-1.053,1.194c-0.098,0.604,0.13,1.33,0.418,1.861
						c0.338,0.624,1.051,0.915,1.686,0.781C177.826,236.323,178.433,235.705,178.433,234.905z"/>
					<path style="fill:#E3A17E;" d="M174.821,241.917c-0.619,0.327-1.263,0.981-1.961,1.108c-0.272,0.243-0.462,0.181-0.57-0.184
						c-0.199-0.151-0.288-0.345-0.269-0.581c-0.108-0.378-0.093-0.893-0.133-1.278c-0.145-1.402-0.251-2.822-0.553-4.201
						c-0.098-0.448-0.784-0.369-0.797,0.085c-0.039,1.363,0.11,2.727,0.224,4.084c0.068,0.822-0.073,2.135,0.389,2.861
						c0.982,1.543,3.505-0.14,4.296-1.033C175.837,242.338,175.388,241.617,174.821,241.917z"/>
					<path style="fill:#FFFFFF;" d="M177.74,244.878c-0.096-0.434-0.701-0.515-0.931-0.149c-0.539,0.86-0.688,1.759-1.696,2.254
						c-1.095,0.537-1.962-0.018-3.052-0.028c-0.291-0.003-0.477,0.304-0.344,0.561c0.671,1.295,2.752,1.224,3.9,0.685
						C176.785,247.652,178.043,246.249,177.74,244.878z"/>
					<path style="fill:#1C2A36;" d="M165.937,234.872c-1.434-0.406-3.239,0.249-3.727,1.757c-0.157,0.484,0.443,0.798,0.8,0.497
						c0.392-0.33,0.567-0.76,1.05-1.019c0.49-0.262,1.021-0.347,1.563-0.208C166.289,236.07,166.604,235.061,165.937,234.872z"/>
					<path style="fill:#1C2A36;" d="M176.903,230.245c-1.426-0.91-4.158,0.757-3.974,2.444c0.039,0.355,0.502,0.32,0.671,0.107
						c0.367-0.463,0.599-0.928,1.117-1.261c0.398-0.256,1.164-0.679,1.626-0.391C176.923,231.506,177.478,230.612,176.903,230.245z"
						/>
				</g>
			</g>
			<path style="fill:#1C2A36;" d="M188.958,201.453c4.764,1.28,9.003,4.658,11.161,9.185c0.778,1.633,1.295,3.4,2.241,4.938
				c1.582,2.572,4.199,4.252,6.697,5.899c5.249,3.461,10.48,7.284,13.915,12.617c3.435,5.333,4.75,12.522,1.795,18.143
				c2.228,2.013,3.393,5.039,3.722,8.059c0.546,5.007-1.063,10.159-4.097,14.125s-7.425,6.761-12.168,8.124
				c-5.748,1.652-12.385,1.088-17.032-2.75c-4.278-3.534-6.256-9.203-7.386-14.704c-2.958-14.392-1.542-29.783-7-43.392
				c-0.828-2.066-1.839-4.111-3.412-5.661c-1.044-1.028-2.31-1.813-3.268-2.924c-2.459-2.855-2.315-7.796,0.794-9.938
				C178.703,200.568,184.695,200.307,188.958,201.453z"/>
		</g>
		<g>
			<g>
				<g>
					<path style="fill:#F1F1F1;" d="M112.39,277.485c0.921-2.922,2.502-4.842,5.375-5.904c3.563-1.317,7.453-1.734,11.214-1.204
						c1.228,0.173,2.47,0.457,3.514,1.125c2.173-1.187,4.674-2.211,7.129-2.538c3.598-0.479,7.228,0.344,10.765,1.162
						c1.279,0.296,2.61,0.617,3.619,1.457c7.34,6.112,9.671,16.456,13.461,25.224c0.216,0.5,0.432,1.009,0.494,1.55
						c0.17,1.484-0.825,2.823-1.764,3.984c-11.465-7.65-23.333-14.754-35.87-20.479c-1.436-0.656-2.92-1.303-4.496-1.392
						C120.766,280.183,117.374,278.429,112.39,277.485z"/>
					<path style="fill:#689360;" d="M150.989,273.513c0.684,0.26,1.372,0.562,1.898,1.07c0.468,0.451,0.779,1.036,1.082,1.611
						c1.766,3.347,3.531,6.694,5.297,10.042c2.746,5.206,5.511,10.458,7.131,16.116c-6.061-0.384-12.329-0.739-18.027,1.363
						c-0.67,0.247-1.339,0.53-2.048,0.612c-0.873,0.101-1.749-0.109-2.608-0.293c-5.553-1.19-11.604-1.305-16.647,1.306
						c-5.552-9.188-10.762-18.583-15.616-28.158c-0.255-0.503,8.75-3.538,9.547-3.721c3.254-0.744,6.675-0.949,9.947-0.196
						c2.092,0.481,2.565,0.465,4.611-0.178c1.63-0.512,3.318-0.842,5.021-0.99C144.094,271.789,147.685,272.259,150.989,273.513z"/>
				</g>
				<path style="fill:#46673D;" d="M147.163,302.64c-2.082-4.804-4.164-9.608-6.245-14.411c-2.052-4.736-3.801-9.862-6.463-14.292
					c-0.914-1.521-3.516-0.672-2.999,1.165c1.406,4.989,3.926,9.775,5.973,14.526c2.131,4.947,4.263,9.893,6.394,14.84
					C144.791,306.714,148.133,304.878,147.163,302.64z"/>
			</g>
			<path style="fill:#E8B390;" d="M136.607,302.496c-1.104-0.958-2.169-2.067-2.678-3.421c-0.131-0.348,0.071-0.744,0.434-0.823
				c0.602-0.131,1.275,0.036,1.715,0.474c-1.012-0.944-1.758-2.171-2.131-3.506c-0.068-0.242-0.123-0.502-0.049-0.742
				c0.146-0.476,0.757-0.671,1.235-0.533c0.477,0.138,0.847,0.509,1.194,0.865c-0.584-0.545-0.891-1.489-0.457-2.16
				c0.434-0.671,1.712-0.586,1.849,0.202c-0.187-0.554-0.326-1.279,0.141-1.627c0.412-0.307,0.992-0.081,1.446,0.159
				c3.052,1.618,3.718,1.864,7.442,4.177c-0.242-0.15-0.469-1.015-0.581-1.284c-0.207-0.495-0.394-1.001-0.527-1.522
				c-0.247-0.973-0.354-2.142,0.108-3.071c0.466-0.937,1.157-0.856,1.868,0.087c1.618,2.145,1.479,3.501,3.398,5.37
				c1.29,1.256,4.184,2.95,5.349,4.323c1.389,1.636,1.471,4.131,0.553,6.073c-0.679,1.436-2.271,3.462-3.919,3.821
				c-1.421,0.31-3.57-0.564-4.943-0.911C143.848,307.39,139.888,305.343,136.607,302.496z"/>
		</g>
		<g>
			<g>
				<path style="fill:#F1CD73;" d="M71.298,372.387c-1.79,0.612-3.739,1.467-4.457,3.218c-0.515,1.256-0.261,2.679,0.001,4.011
					c0.086,0.438,0.189,0.907,0.517,1.209c0.289,0.267,0.698,0.351,1.086,0.42c6.212,1.104,12.638,0.992,18.808-0.328
					c1.178-0.252,2.355-0.551,3.446-1.06c2.88-1.345,4.885-4.005,6.77-6.564c0.142-0.193,0.29-0.403,0.295-0.642
					c0.007-0.373-0.326-0.651-0.627-0.871c-2.07-1.506-4.159-3.024-6.495-4.072c-1.667-0.748-3.919-1.551-5.782-1.268
					c-1.273,0.194-2.098,1.257-3.166,1.905C78.506,370.275,74.792,371.191,71.298,372.387z"/>
				<path style="fill:#CC8880;" d="M81.796,368.039c0.022-0.231,0.072-0.471,0.151-0.721c0.266-0.837,0.797-1.559,1.318-2.265
					c5.951-8.048,11.898-16.098,17.867-24.132c3.281-4.253,6.601-8.475,9.936-12.686c3.122-3.942,6.067-8.774,9.717-12.223
					c2.715-3.146,5.504-6.29,8.917-8.66c3.413-2.369,7.556-3.924,11.69-3.508c4.601,0.463,8.595,3.242,12.358,5.931
					c4.146,2.962,8.291,5.924,12.437,8.886c5.258,3.757,10.537,7.531,15.206,12c5.105,4.886,9.438,10.577,12.79,16.797
					c1.742,3.232,3.25,6.747,3.164,10.417c-0.158,6.757-5.952,12.443-12.475,14.212c-5.813,1.576-12.286,0.519-17.295-2.824
					c-4-2.67-6.959-6.601-9.837-10.454c-7.83-10.484-15.819-17.396-21.396-29.234c-4.953,9.909-9.467,14.639-15.327,21.298
					c-5.953,6.765-10.913,10.809-16.867,17.574c-2.396,2.723-5.084,5.614-8.663,6.207c-2.08,0.345-4.216-0.152-6.185-0.917
					C86.906,372.804,81.473,371.401,81.796,368.039z"/>
			</g>
			<g>
				<path style="fill:#F1CD73;" d="M31.678,348.556c-1.51-0.426-3.048-0.856-4.624-0.866c-1.576-0.01-3.226,0.464-4.179,1.557
					c-1.528,1.751-0.775,4.346,0.493,6.296c2.473,3.801,6.554,6.619,10.914,8.709c0.921,0.442,1.863,0.857,2.855,1.149
					c1.559,0.459,3.206,0.605,4.838,0.703c3.833,0.232,7.679,0.223,11.5-0.025c0.328-0.021,0.679-0.053,0.926-0.24
					c0.227-0.172,0.321-0.441,0.401-0.697c0.565-1.802,0.952-3.675,0.789-5.55c-0.129-1.48-0.697-3.974-2.207-4.912
					c-1.606-0.998-4.617-1.306-6.501-1.837C41.815,351.414,36.746,349.985,31.678,348.556z"/>
				<path style="fill:#CC8880;" d="M173.532,368.973c-37.257,0.572-74.555,0.111-111.823-1.383
					c-3.991-0.16-8.026-0.338-11.881-1.319c-0.911-3.571-1.195-7.332-0.802-10.954c0.063-0.579,0.167-1.204,0.633-1.609
					c0.382-0.332,0.936-0.451,1.464-0.545c6.089-1.079,12.42-0.492,18.628-0.891c4.882-0.314,9.675-1.237,14.54-1.686
					c7.252-0.67,14.6-0.282,21.884-0.676c16.021-0.866,31.418-5.485,47.357-7.046c1.652-0.162,3.338-0.289,4.975,0.013
					c2.537,0.469,4.705,1.919,6.674,3.428c3.893,2.983,7.467,6.456,9.462,10.642C176.638,361.133,176.109,365.122,173.532,368.973z"
					/>
			</g>
		</g>
	</g>
	<g>
		<g>
			<path style="fill:#3A5074;" d="M668.168,365.541c-1.541,0.389-1.964,2.343-2.093,3.928c-0.244,3.001-0.489,6.002-0.733,9.003
				c-0.063,0.775-0.123,1.579,0.141,2.311c0.634,1.761,2.756,2.37,4.567,2.844c3.148,0.824,6.213,1.963,9.134,3.395
				c1.186,0.581,2.352,1.212,3.587,1.68c3.271,1.241,6.892,1.285,10.35,0.755c1.618-0.248,3.268-0.641,4.589-1.608
				c1.32-0.968,2.242-2.632,1.914-4.236c-0.328-1.605-1.771-2.74-3.242-3.461c-1.471-0.721-3.089-2.31-4.386-3.311
				c-1.925-1.485-5.084-3.885-6.213-6.039c-1.128-2.154-3.789-6.512-5.218-7.019c-1.429-0.506-3.001-0.271-4.497-0.03
				c-1.424,0.229-2.848,0.459-4.272,0.688c-1.953,0.314-4.28,0.942-4.83,2.842"/>
			<path style="fill:#3A5074;" d="M645.476,375.592c-0.314,1.214-0.636,2.448-1.279,3.524c-0.545,0.913-1.305,1.684-1.835,2.605
				c-0.778,1.354-1.013,2.95-1.102,4.509c-0.08,1.404-0.004,2.95,0.931,4.001c0.822,0.923,2.111,1.242,3.319,1.498
				c2.766,0.588,5.615,1.101,8.408,0.658c2.793-0.443,5.557-2.016,6.717-4.595c1.128-2.509,0.571-5.415,0.84-8.153
				c0.282-2.863,1.474-5.818,0.469-8.513c-0.411-1.102-1.165-2.054-1.546-3.167c-0.35-1.024-0.367-2.131-0.606-3.187
				c-0.24-1.056-0.791-2.144-1.79-2.56c-0.754-0.314-1.611-0.184-2.417-0.049c-2.38,0.399-6.518,1.028-7.717,3.525
				c-0.541,1.128-0.569,2.855-0.888,4.089C646.478,371.717,645.977,373.654,645.476,375.592z"/>
			<path style="fill:#CC8880;" d="M627.818,223.31c0,0,2.724,47.034,8.17,79.79c0,0,6.96,45.914,10.289,64.952
				c0,0,5.75,1.96,14.223-0.56c0,0-0.299-88.655-2.511-113.945l-0.817-31.076L627.818,223.31z"/>
			<path style="fill:#CC8880;" d="M692.86,292.909c-3.326,24.715-6.652,49.453-9.978,74.179c-3.673,0.459-7.391,0.661-11.098,0.594
				c-1.803-0.034-3.718-0.112-5.431-0.706c-0.112-0.034-0.213-0.078-0.314-0.134c2.061-23.808,3.326-47.672,3.785-71.548
				c0.056-3.247,0.101-6.518-0.392-9.732c-0.649-4.143-2.184-8.119-3.662-12.094c-5.23-14.155-9.675-28.523-14.11-42.891
				c-0.336-1.075-0.661-2.262-0.157-3.281c0.482-0.997,1.635-1.59,2.721-2.072c7.044-3.124,14.905-4.77,22.778-4.782
				c10.191,0,8.679,11.4,10,18.377l5.274,27.75c0.75,3.964,1.501,7.94,1.669,11.96C694.147,283.334,693.498,288.127,692.86,292.909z
				"/>
		</g>
		<g>
			<path style="fill:#3A5074;" d="M692.711,234.583c-0.209,1.249-0.58,2.511-1.392,3.461c-0.881,1.025-2.169,1.587-3.422,2.062
				c-4.875,1.848-7.467,1.989-12.56,2.372c-5.755,0.432-11.514,0.809-17.281,0.98c-6.842,0.202-13.699,0.118-20.522-0.509
				c-5.273-0.484-11.001-0.326-14.94-4.904c-0.812-0.95-1.195-2.212-1.404-3.461c-0.754-4.511,0.464-9.084,1.415-13.557
				c2.989-14.055-1.57-28.47-1.865-42.662c-0.15-7.212-0.137-16.025,2.851-22.661c3.802-8.443,13.395-8.654,20.507-12.494
				c2.807-1.512,5.718-2.686,8.653-3.161c5.626-0.912,10.799,0.575,15.636,3.086c4.443,2.311,12.583,4.236,16.516,7.184
				c1.287,0.975,2.563,1.999,3.48,3.348c1.067,1.599,1.543,2.299,1.937,4.211c4.176,19.929-3.234,43.219,0.988,63.148
				C692.258,225.499,693.477,230.072,692.711,234.583z"/>
			<g>
				<g>
					<path style="fill:#FFFFFF;" d="M657.32,169.57c0.314,0.154,0.661,0.316,1,0.232c0.248-0.062,0.444-0.244,0.632-0.418
						c4.582-4.25,10.68-6.829,16.921-7.155c0.138,2.11,0.276,4.221,0.415,6.331c0.017,0.258,0.029,0.536-0.109,0.755
						c-0.132,0.21-0.374,0.32-0.602,0.418c-5.792,2.488-11.716,4.667-17.74,6.526c-0.713,0.22-1.443,0.438-2.189,0.411
						c-0.831-0.029-1.619-0.359-2.384-0.684c-2.626-1.113-5.252-2.227-7.878-3.34c-1.658-0.703-11.077-3.408-8.139-6.368
						c1.35-1.36,4.568-0.727,6.269-0.57c2.28,0.21,4.542,0.617,6.753,1.215C652.695,167.58,655.06,168.466,657.32,169.57z"/>
					<path style="fill:#DA9D92;" d="M635.283,166.404l22.49,4.398l-0.503,31.34c0,0-9.711-1.581-21.786-3.912
						C635.484,198.23,635.33,178.279,635.283,166.404z"/>
					<polygon style="fill:#D18B82;" points="657.773,170.802 660.157,170.246 659.91,200.403 657.27,202.142 					"/>
					<path style="fill:#DA9D92;" d="M660.157,170.246l18.984-6.464c0,0-0.069,19.116,0.144,28.025c0,0-3.561,7.305-19.374,8.595
						L660.157,170.246z"/>
				</g>
				<path style="fill:#D18B82;" d="M676.443,179.578c-0.093-1.747,0.188-4.08-0.353-5.74c-0.067-0.204-0.233-0.347-0.452-0.356
					c-1.211-0.048-2.403,0.502-3.509,0.925c-1.599,0.613-3.255,1.054-4.885,1.573c-1.126,0.358-3.412,0.773-4.018,1.94
					c-0.472,0.908,0.052,2.983,0.107,3.994c0.096,1.775,0.21,3.549,0.335,5.322c0.02,0.29,0.276,0.567,0.594,0.467
					c2.227-0.696,4.436-1.44,6.621-2.256c1.331-0.497,4.445-1.153,5.401-2.281C676.998,182.323,676.497,180.597,676.443,179.578z
					 M675.522,182.463c-0.624,0.959-2.92,1.321-4.058,1.756c-2.27,0.867-4.569,1.65-6.885,2.383
					c-0.147-2.148-0.283-4.297-0.386-6.448c-0.028-0.592-0.055-1.184-0.08-1.776c0.514-0.357,1.067-0.632,1.661-0.826
					c0.237-0.106,0.481-0.198,0.721-0.298c1.797-0.629,3.625-1.169,5.445-1.731c0.767-0.237,2.66-1.252,3.314-0.517
					c0.438,0.493,0.184,3.478,0.217,4.099C675.512,179.915,675.954,181.799,675.522,182.463z"/>
			</g>
			<path style="fill:#E8B390;" d="M638.158,186.755c1.387-1.487,3.067-2.559,4.735-3.621c0.354-0.225,0.889-0.395,1.189,0.058
				c0.28,0.424,0.04,0.93-0.204,1.262c-1.087,1.479-2.174,2.959-3.261,4.438c2.04-1.016,3.507-3.411,5.88-3.354
				c0.215,0.005,0.459,0.046,0.629,0.248c0.357,0.424,0.047,1.012-0.271,1.322c-1.327,1.291-2.705,2.513-4.129,3.663
				c1.422-0.583,2.843-1.165,4.265-1.748c0.477-0.196,1.006-0.389,1.542-0.137c0.172,0.081,0.346,0.218,0.437,0.415
				c0.225,0.488-0.175,0.893-0.53,1.099c-1.338,0.774-2.677,1.547-4.015,2.321c1.853-0.1,3.559-1.466,5.42-0.504
				c0.134,0.069,0.276,0.16,0.357,0.31c0.156,0.291,0.002,0.604-0.168,0.804c-1.045,1.225-2.656,1.551-4.079,2.16
				c-0.272,0.116-0.542,0.246-0.766,0.448c-0.31,0.278-0.519,0.679-0.747,1.054c-0.992,1.635-2.408,2.857-4.065,3.508
				c-0.792,0.311-1.648,0.499-2.339,1.008c-0.421,0.309-0.798,0.743-1.326,0.789c-0.374,0.033-0.775-0.138-1.151-0.347
				c-1.399-0.775-2.675-2.158-3.471-3.768c-0.833-1.686-0.027-2.129,0.725-3.226C634.652,192.281,635.99,189.08,638.158,186.755z"/>
			<path style="fill:#E8B390;" d="M668.387,143.311c-2.065,3.17-5.092,5.564-8.467,6.577c-4.86,1.46-11.425,0.132-14.743-4.485
				c-0.534-0.75-0.893-1.421-1.079-2.012c2.807-1.592,5.718-2.828,8.653-3.328C658.377,139.102,663.55,140.668,668.387,143.311z"/>
			<path style="fill:#E8B390;" d="M673.95,186.755c-1.387-1.487-3.067-2.559-4.735-3.621c-0.354-0.225-0.889-0.395-1.189,0.058
				c-0.28,0.424-0.04,0.93,0.204,1.262c1.087,1.479,2.174,2.959,3.261,4.438c-2.04-1.016-3.507-3.411-5.88-3.354
				c-0.215,0.005-0.459,0.046-0.629,0.248c-0.357,0.424-0.047,1.012,0.271,1.322c1.327,1.291,2.705,2.513,4.129,3.663
				c-1.422-0.583-2.843-1.165-4.265-1.748c-0.477-0.196-1.006-0.389-1.542-0.137c-0.172,0.081-0.346,0.218-0.437,0.415
				c-0.225,0.488,0.175,0.893,0.53,1.099c1.338,0.774,2.676,1.547,4.015,2.321c-1.853-0.1-3.559-1.466-5.42-0.504
				c-0.134,0.069-0.276,0.16-0.357,0.31c-0.157,0.291-0.002,0.604,0.168,0.804c1.045,1.225,2.656,1.551,4.079,2.16
				c0.272,0.116,0.542,0.246,0.766,0.448c0.309,0.278,0.519,0.679,0.746,1.054c0.992,1.635,2.408,2.857,4.065,3.508
				c0.793,0.311,1.648,0.499,2.339,1.008c0.421,0.309,0.797,0.743,1.326,0.789c0.374,0.033,0.775-0.138,1.151-0.347
				c1.399-0.775,2.675-2.158,3.471-3.768c0.833-1.686,0.027-2.129-0.725-3.226C677.456,192.281,676.118,189.08,673.95,186.755z"/>
			<path style="fill:#3A5074;" d="M620.28,160.793c-6.486,12.43-13.086,25.22-14.679,39.15c-0.442,3.866-0.283,8.297,2.58,10.932
				c2.023,1.862,4.961,2.365,7.709,2.287c7.509-0.213,14.374-4.047,20.893-7.779c0.551-0.315,1.152-0.694,1.307-1.31
				c0.113-0.451-0.045-0.923-0.225-1.351c-0.847-2.019-2.19-3.783-3.519-5.523c-0.987-1.291-2.008-2.614-3.403-3.446
				c-1.396-0.832-3.273-1.069-4.61-0.146c1.158-12.064,2.315-24.128,3.473-36.193c0.251-2.614-0.65-6.202-3.973-4.73
				C623.231,153.837,621.51,158.436,620.28,160.793z"/>
			<path style="fill:#3A5074;" d="M693.014,160.793c6.486,12.43,13.086,25.22,14.679,39.15c0.442,3.866,0.283,8.297-2.58,10.932
				c-2.023,1.862-4.961,2.365-7.709,2.287c-7.509-0.213-14.374-4.047-20.893-7.779c-0.551-0.315-1.152-0.694-1.307-1.31
				c-0.113-0.451,0.045-0.923,0.225-1.351c0.846-2.019,2.19-3.783,3.519-5.523c0.986-1.291,2.008-2.614,3.403-3.446
				c1.396-0.832,3.273-1.069,4.61-0.146c-1.158-12.064-2.315-24.128-3.473-36.193c-0.251-2.614,0.65-6.202,3.973-4.73
				C690.063,153.837,691.784,158.436,693.014,160.793z"/>
			<path style="fill:#2F445D;" d="M632.378,161.668c-5.438,10.127-9.081,20.919-10.852,32.282c-0.196,1.259,1.731,1.802,1.929,0.532
				c1.745-11.197,5.286-21.815,10.651-31.805C634.714,161.544,632.988,160.533,632.378,161.668z"/>
			<path style="fill:#2F445D;" d="M681.299,160.832c-0.602-1.138-2.329-0.129-1.727,1.009c5.561,10.519,10.314,21.461,10.262,33.567
				c-0.006,1.287,1.994,1.289,2,0C691.888,182.962,687.019,171.651,681.299,160.832z"/>
		</g>
		<g>
			<path style="fill:#E8B390;" d="M648.411,142.517c0.001,0.257,0.007,0.531,0.137,0.747c0.159,0.264,0.46,0.375,0.74,0.461
				c4.007,1.226,8.406,0.895,12.217-0.918c0.193-0.092,0.395-0.197,0.509-0.389c0.121-0.203,0.117-0.462,0.11-0.703
				c-0.24-7.857-0.481-15.715-0.721-23.572c-0.02-0.635-6.169-0.924-6.808-0.926c-1.432-0.007-4.745-0.321-5.901,0.808
				c-1.147,1.121-0.395,5.369-0.386,6.938c0.016,2.734,0.032,5.468,0.048,8.202C648.374,136.282,648.393,139.4,648.411,142.517z"/>
			<g>
				<path style="fill:#1C2A36;" d="M680.997,107.251c-1.986-9.052-8.518-17.209-17.419-21.753c0.817-0.563,0.566-1.83-0.247-2.396
					c-0.813-0.567-1.93-0.603-2.953-0.519c-2.723,0.225-4.932,0.928-6.753,1.975c-1.648-1.047-3.647-1.75-6.111-1.975
					c-0.926-0.084-1.937-0.048-2.672,0.519c-0.736,0.567-0.963,1.834-0.224,2.396c-8.055,4.544-13.966,12.701-15.763,21.753
					c-0.196,0.988-0.335,2.062,0.122,2.96c0.456,0.898,1.745,1.427,2.515,0.775c-0.471,9.058,4.716,18.171,12.757,22.413
					c2.727,1.439,5.944,2.351,8.901,1.471c0.163-0.049,0.317-0.118,0.476-0.177c0.176,0.059,0.345,0.128,0.526,0.177
					c3.268,0.88,6.822-0.032,9.836-1.471c8.885-4.242,14.617-13.355,14.097-22.413c0.851,0.652,2.275,0.123,2.779-0.775
					S681.214,108.239,680.997,107.251z"/>
				<g>
					<g>
						<path style="fill:#E8B390;" d="M644.36,95.011c-3.258,2.228-5.354,5.78-6.331,9.501c-0.977,3.722-0.921,7.625-0.535,11.444
							c0.32,3.161,0.861,6.301,1.591,9.399c0.492,2.087,1.085,4.19,2.256,6.011c1.767,2.746,4.772,4.648,8.017,5.503
							c3.244,0.856,6.711,0.725,9.993,0.014c1.508-0.327,3.003-0.78,4.327-1.545c2.404-1.388,4.092-3.73,5.079-6.25
							c0.987-2.52,1.33-5.226,1.529-7.911c0.288-3.883,0.29-7.78,0.292-11.673c0.001-1.74,0-3.494-0.353-5.201
							c-0.663-3.204-2.608-6.147-5.345-8.091c-1.491-1.059-3.211-1.816-5.014-2.232c-1.66-0.383-3.363-0.222-5.005-0.61
							C651.15,92.494,647.558,92.824,644.36,95.011z"/>
						<path style="fill:#E8B390;" d="M632.997,116.069c-0.418,0.499-0.627,1.132-0.74,1.763c-0.341,1.898,0.142,3.935,1.369,5.458
							c1.227,1.523,3.194,2.49,5.198,2.48c0.657-0.003,1.329-0.113,1.894-0.435c1.259-0.719,1.676-2.307,1.581-3.712
							c-0.146-2.159-1.399-4.726-3.348-5.937C637.344,114.688,634.29,114.527,632.997,116.069z"/>
						<path style="fill:#E8B390;" d="M675.756,116.069c0.418,0.499,0.627,1.132,0.74,1.763c0.341,1.898-0.142,3.935-1.369,5.458
							c-1.227,1.523-3.194,2.49-5.198,2.48c-0.657-0.003-1.329-0.113-1.894-0.435c-1.259-0.719-1.676-2.307-1.581-3.712
							c0.146-2.159,1.399-4.726,3.348-5.937C671.409,114.688,674.463,114.527,675.756,116.069z"/>
					</g>
					<g>
						<path style="fill:#1C2A36;" d="M647.028,116.092c-0.222-0.154-0.481-0.258-0.753-0.295c-0.768-0.103-1.472,0.334-1.827,1.004
							c-0.315,0.594-0.26,1.253-0.111,1.886c0.001,0.006,0.003,0.011,0.004,0.017c0.059,0.469,0.218,0.919,0.54,1.256
							c0.114,0.144,0.247,0.275,0.412,0.385c0.548,0.367,1.252,0.443,1.841,0.114c0.637-0.356,0.884-1.043,0.93-1.732
							C648.131,117.738,647.886,116.533,647.028,116.092z"/>
						<path style="fill:#1C2A36;" d="M663.766,116.092c-0.222-0.154-0.481-0.258-0.753-0.295c-0.768-0.103-1.472,0.334-1.827,1.004
							c-0.314,0.594-0.26,1.253-0.111,1.886c0.001,0.006,0.003,0.011,0.004,0.017c0.059,0.469,0.218,0.919,0.54,1.256
							c0.114,0.144,0.247,0.275,0.412,0.385c0.548,0.367,1.251,0.443,1.841,0.114c0.637-0.356,0.884-1.043,0.93-1.732
							C664.869,117.738,664.624,116.533,663.766,116.092z"/>
						<path style="fill:#E3A17E;" d="M656.037,122.685c-0.618,0.188-1.28,0.402-1.885,0.125c-0.125-1.86,0.566-3.794,0.169-5.638
							c-0.08-0.37-0.574-0.303-0.685,0c-0.335,0.914-0.318,1.938-0.397,2.902c-0.07,0.857-0.478,2.342-0.174,3.155
							c0.458,1.226,2.508,0.96,3.378,0.418C656.936,123.34,656.625,122.507,656.037,122.685z"/>
						<path style="fill:#F1F1F1;" d="M658.428,125.445c-0.724,1.333-2.258,2.26-3.799,2.187c-1.503-0.071-2.31-1.035-3.208-2.107
							c-0.19-0.227-0.597-0.042-0.584,0.242c0.082,1.777,1.893,2.954,3.542,3.091c2.051,0.171,4.144-0.984,5.08-2.811
							C659.807,125.367,658.797,124.767,658.428,125.445z"/>
						<path style="fill:#E3A17E;" d="M638.214,120.639c-0.293-0.249-0.538-0.274-0.911-0.341c-0.447-0.082-0.863-0.241-1.245-0.49
							c-0.755-0.493-1.005-1.277-1.535-1.944c-0.164-0.206-0.561-0.095-0.605,0.16c-0.181,1.034,0.581,2.073,1.355,2.679
							c0.725,0.567,2.121,1.249,2.94,0.567C638.389,121.124,638.385,120.784,638.214,120.639z"/>
						<path style="fill:#E3A17E;" d="M674.88,117.577c-0.034-0.253-0.383-0.19-0.453,0c-0.238,0.649-1.025,1.383-1.513,1.87
							c-0.533,0.531-1.107,0.929-1.81,1.203c-0.692,0.27-0.437,1.337,0.314,1.138c0.969-0.257,1.793-0.906,2.409-1.685
							C674.402,119.375,675.011,118.546,674.88,117.577z"/>
						<path style="fill:#1C2A36;" d="M648.786,113.655c-0.725-1.025-1.876-1.575-3.135-1.442c-0.842,0.089-2.676,0.779-2.546,1.864
							c0.012,0.103,0.059,0.167,0.155,0.204c0.639,0.247,1.338-0.645,1.945-0.836c1.051-0.33,2.051,0.018,2.739,0.86
							C648.325,114.773,649.138,114.153,648.786,113.655z"/>
						<path style="fill:#1C2A36;" d="M665.756,114.093c-0.657-2.903-5.46-2.615-6.098,0.154c-0.07,0.305,0.295,0.529,0.527,0.307
							c0.675-0.648,1.236-1.331,2.219-1.477c1.176-0.175,1.875,0.493,2.5,1.376C665.204,114.876,665.877,114.628,665.756,114.093z"
							/>
						<path style="fill:#E3A17E;" d="M644.313,122.719c-0.382-0.062-0.807-0.05-1.227,0.025c-1.654,0.054-3.368,1.343-2.292,3.085
							c1.116,1.805,4.748,1.671,5.333-0.534C646.457,124.055,645.504,122.912,644.313,122.719z"/>
						<path style="fill:#E3A17E;" d="M666.63,122.719c-0.382-0.062-0.807-0.05-1.227,0.025c-1.654,0.054-3.368,1.343-2.292,3.085
							c1.115,1.805,4.748,1.671,5.333-0.534C668.774,124.055,667.821,122.912,666.63,122.719z"/>
					</g>
				</g>
				<path style="fill:#1C2A36;" d="M637.542,110.271c2.862-1.912,5.013-4.842,7.104-7.713c-0.396,1.029-0.801,2.112-0.706,3.225
					c0.094,1.113,0.87,2.242,1.89,2.246c0.668,0.003,1.256-0.455,1.782-0.907c1.959-1.683,3.778-3.563,5.425-5.609
					c-0.559,2.113,1.296,4.491,3.296,4.29c1.999-0.2,3.435-2.797,2.74-4.861c0.614,2.227,2.248,3.933,3.967,5.3
					c0.814,0.647,1.766,1.271,2.76,1.105c0.994-0.166,1.799-1.559,1.159-2.41c0.586,1.421,1.371,3.022,2.77,3.306
					c1.266,0.257,2.531-0.793,2.999-2.108c0.468-1.315,0.296-2.801-0.066-4.156c-3.422-12.805-17.587-13.147-26.996-8.63
					c-3.663,1.758-7.048,4.771-8.858,8.741C636.129,103.578,633.515,112.962,637.542,110.271z"/>
			</g>
		</g>
	</g>
</g>
<g id="DESIGNED_BY_FREEPIK">
	<g>
		<g id="XMLID_319_">
			<g id="XMLID_338_">
				<path id="XMLID_346_" style="fill:#1D262D;" d="M385.104,465.465c-0.433,0.443-0.804,0.932-1.108,1.453l-0.465-0.241
					c-0.067-0.297-0.35-0.502-0.659-0.466c-0.331,0.039-0.567,0.339-0.529,0.67c0.039,0.331,0.339,0.567,0.67,0.528
					c0.066-0.007,0.127-0.025,0.184-0.052l0.451,0.234c-0.251,0.554-0.433,1.139-0.539,1.743l0.747,0.132
					c0.229-1.306,0.85-2.507,1.792-3.473L385.104,465.465z"/>
				<path id="XMLID_345_" style="fill:#1D262D;" d="M390.592,463.164c-0.171,0-0.341,0.006-0.509,0.017l-0.074-0.626
					c0.188-0.149,0.296-0.389,0.266-0.645c-0.046-0.393-0.402-0.674-0.795-0.628c-0.393,0.046-0.675,0.402-0.628,0.796
					c0.03,0.254,0.19,0.461,0.404,0.563l0.073,0.624c-0.714,0.116-1.402,0.332-2.06,0.646l0.327,0.685
					c0.935-0.447,1.941-0.674,2.995-0.674c0.497,0,0.993,0.053,1.476,0.158l0.16-0.741
					C391.692,463.222,391.142,463.164,390.592,463.164z"/>
				<path id="XMLID_344_" style="fill:#1D262D;" d="M397.194,465.711c0.331-0.04,0.566-0.341,0.525-0.672
					c-0.04-0.331-0.341-0.566-0.672-0.525c-0.31,0.038-0.535,0.304-0.53,0.608l-0.416,0.363c-0.418-0.43-0.89-0.813-1.407-1.14
					l-0.404,0.642c1.135,0.715,2.021,1.727,2.564,2.925l0.69-0.313c-0.251-0.554-0.567-1.071-0.942-1.545l0.402-0.351
					C397.065,465.715,397.129,465.719,397.194,465.711z"/>
				<path id="XMLID_343_" style="fill:#1D262D;" d="M390.045,473.372c-0.386,0.023-0.775,0.035-1.157,0.035
					c-0.88,0-1.733-0.061-2.478-0.18c-0.391-0.062-0.846-0.154-1.271-0.292c1.047,1.861,3.069,3.125,5.389,3.125
					c2.855,0,5.263-1.916,5.949-4.503c-0.682,0.449-1.505,0.825-2.458,1.122C392.839,473.047,391.464,473.287,390.045,473.372z"/>
				<path id="XMLID_339_" style="fill:#1D262D;" d="M390.592,464.68c-3.352,0-6.079,2.666-6.079,5.943
					c0,0.425,0.046,0.849,0.137,1.261c0.674,0.483,2.706,0.891,5.348,0.731c2.88-0.174,5.297-0.958,6.672-2.159
					c-0.005-0.194-0.021-0.39-0.045-0.581C396.244,466.914,393.65,464.68,390.592,464.68z M388.432,471.195
					c-1.02,0-1.85-0.83-1.85-1.85c0-1.021,0.83-1.851,1.85-1.851c1.02,0,1.85,0.83,1.85,1.851
					C390.282,470.365,389.452,471.195,388.432,471.195z M393.17,470.287c-0.75,0-1.36-0.61-1.36-1.36s0.61-1.36,1.36-1.36
					s1.36,0.61,1.36,1.36S393.92,470.287,393.17,470.287z"/>
			</g>
			<path id="XMLID_336_" style="fill:#1D262D;" d="M406.596,466.547c-0.295-0.116-0.806-0.31-1.383-0.238
				c-0.551,0.069-0.844,0.341-0.844,1.007v0.866h2.229v1.717h-2.229v5.455h-1.932v-5.455h-1.339v-1.717h1.339v-0.889
				c0-1.68,0.896-2.782,2.568-2.782c0.643,0,1.157,0.121,1.59,0.308V466.547z"/>
			<path id="XMLID_334_" style="fill:#1D262D;" d="M411.298,469.878c-0.177-0.029-0.357-0.046-0.525-0.046
				c-0.895,0-1.51,0.548-1.51,1.613v3.908h-1.933v-7.172h1.873v0.784c0.451-0.673,1.14-0.977,2.02-0.977
				c0.414,0,0.848,0.128,1.095,0.337L411.298,469.878z"/>
			<path id="XMLID_331_" style="fill:#1D262D;" d="M418.966,471.757c0,0.222-0.016,0.488-0.037,0.651h-5.085
				c0.207,1.036,0.933,1.487,1.843,1.487c0.622,0,1.295-0.252,1.813-0.689l1.133,1.243c-0.814,0.748-1.851,1.089-3.057,1.089
				c-2.198,0-3.724-1.496-3.724-3.753c0-2.258,1.48-3.797,3.627-3.797C417.544,467.99,418.958,469.522,418.966,471.757z
				 M413.851,471.091h3.175c-0.178-0.918-0.732-1.437-1.562-1.437C414.555,469.655,414.021,470.203,413.851,471.091z"/>
			<path id="XMLID_328_" style="fill:#1D262D;" d="M426.619,471.757c0,0.222-0.016,0.488-0.037,0.651h-5.085
				c0.207,1.036,0.933,1.487,1.843,1.487c0.622,0,1.296-0.252,1.814-0.689l1.133,1.243c-0.814,0.748-1.851,1.089-3.058,1.089
				c-2.198,0-3.723-1.496-3.723-3.753c0-2.258,1.481-3.797,3.627-3.797C425.197,467.99,426.611,469.522,426.619,471.757z
				 M421.505,471.091h3.175c-0.178-0.918-0.733-1.437-1.562-1.437C422.208,469.655,421.675,470.203,421.505,471.091z"/>
			<path id="XMLID_325_" style="fill:#1D262D;" d="M434.965,471.764c0,2.154-1.495,3.775-3.472,3.775
				c-0.962,0-1.643-0.378-2.109-0.933v3.708h-1.925v-10.133h1.888v0.792c0.467-0.585,1.154-0.984,2.139-0.984
				C433.47,467.99,434.965,469.611,434.965,471.764z M429.287,471.764c0,1.133,0.748,1.977,1.844,1.977
				c1.14,0,1.85-0.881,1.85-1.977c0-1.095-0.71-1.976-1.85-1.976C430.035,469.789,429.287,470.632,429.287,471.764z"/>
			<path id="XMLID_322_" style="fill:#1D262D;" d="M438.068,465.836c0,0.696-0.541,1.229-1.236,1.229
				c-0.696,0-1.228-0.533-1.228-1.229c0-0.695,0.532-1.243,1.228-1.243C437.527,464.592,438.068,465.14,438.068,465.836z
				 M437.808,475.354h-1.932v-7.172h1.932V475.354z"/>
			<path id="XMLID_320_" style="fill:#1D262D;" d="M441.032,470.736l2.702-2.554h2.368l-3.478,3.375l3.501,3.797h-2.376
				l-2.717-2.901v2.901H439.1v-10.658h1.932V470.736z"/>
		</g>
		<g>
			<path style="fill:#1D262D;" d="M309.412,475.29v-1.055c-0.527,0.718-1.391,1.23-2.387,1.23c-1.846,0-3.149-1.406-3.149-3.706
				c0-2.256,1.289-3.721,3.149-3.721c0.952,0,1.816,0.469,2.387,1.245v-3.765h1.099v9.771H309.412z M309.412,473.371v-3.208
				c-0.395-0.615-1.245-1.143-2.124-1.143c-1.42,0-2.27,1.172-2.27,2.739c0,1.567,0.85,2.725,2.27,2.725
				C308.168,474.484,309.017,473.986,309.412,473.371z"/>
			<path style="fill:#1D262D;" d="M311.932,471.745c0-2.051,1.465-3.706,3.486-3.706c2.139,0,3.398,1.67,3.398,3.794v0.278h-5.727
				c0.088,1.333,1.025,2.446,2.549,2.446c0.806,0,1.626-0.322,2.182-0.894l0.527,0.718c-0.703,0.703-1.655,1.084-2.812,1.084
				C313.441,475.465,311.932,473.957,311.932,471.745z M315.404,468.947c-1.509,0-2.256,1.274-2.314,2.358h4.644
				C317.718,470.25,317.015,468.947,315.404,468.947z"/>
			<path style="fill:#1D262D;" d="M319.607,474.352l0.571-0.791c0.469,0.542,1.362,1.011,2.329,1.011c1.084,0,1.67-0.513,1.67-1.216
				c0-1.714-4.38-0.659-4.38-3.281c0-1.099,0.952-2.036,2.636-2.036c1.202,0,2.051,0.454,2.623,1.025l-0.513,0.762
				c-0.424-0.513-1.201-0.894-2.109-0.894c-0.966,0-1.567,0.483-1.567,1.113c0,1.553,4.379,0.527,4.379,3.281
				c0,1.187-0.952,2.139-2.783,2.139C321.306,475.465,320.325,475.114,319.607,474.352z"/>
			<path style="fill:#1D262D;" d="M326.477,466.471c0-0.41,0.337-0.747,0.732-0.747c0.41,0,0.747,0.337,0.747,0.747
				c0,0.41-0.337,0.732-0.747,0.732C326.814,467.204,326.477,466.881,326.477,466.471z M326.667,475.29v-7.075h1.099v7.075H326.667z
				"/>
			<path style="fill:#1D262D;" d="M329.582,477.106l0.556-0.82c0.586,0.703,1.289,0.967,2.3,0.967c1.172,0,2.271-0.571,2.271-2.124
				v-1.011c-0.513,0.718-1.377,1.26-2.373,1.26c-1.846,0-3.149-1.377-3.149-3.662c0-2.271,1.289-3.677,3.149-3.677
				c0.952,0,1.802,0.469,2.373,1.245v-1.069h1.099v6.87c0,2.344-1.641,3.076-3.369,3.076
				C331.237,478.161,330.417,477.925,329.582,477.106z M334.709,473.253v-3.091c-0.381-0.615-1.23-1.143-2.109-1.143
				c-1.421,0-2.27,1.128-2.27,2.695c0,1.553,0.849,2.695,2.27,2.695C333.478,474.411,334.328,473.869,334.709,473.253z"/>
			<path style="fill:#1D262D;" d="M342.413,475.29v-4.629c0-1.245-0.63-1.641-1.582-1.641c-0.864,0-1.685,0.527-2.094,1.099v5.171
				h-1.099v-7.075h1.099v1.025c0.497-0.586,1.464-1.201,2.519-1.201c1.479,0,2.256,0.747,2.256,2.285v4.966H342.413z"/>
			<path style="fill:#1D262D;" d="M344.932,471.745c0-2.051,1.465-3.706,3.486-3.706c2.139,0,3.398,1.67,3.398,3.794v0.278h-5.727
				c0.088,1.333,1.025,2.446,2.548,2.446c0.806,0,1.626-0.322,2.183-0.894l0.527,0.718c-0.703,0.703-1.655,1.084-2.813,1.084
				C346.442,475.465,344.932,473.957,344.932,471.745z M348.404,468.947c-1.509,0-2.256,1.274-2.314,2.358h4.643
				C350.719,470.25,350.016,468.947,348.404,468.947z"/>
			<path style="fill:#1D262D;" d="M358.35,475.29v-1.055c-0.527,0.718-1.392,1.23-2.388,1.23c-1.845,0-3.149-1.406-3.149-3.706
				c0-2.256,1.289-3.721,3.149-3.721c0.952,0,1.817,0.469,2.388,1.245v-3.765h1.098v9.771H358.35z M358.35,473.371v-3.208
				c-0.396-0.615-1.245-1.143-2.124-1.143c-1.421,0-2.27,1.172-2.27,2.739c0,1.567,0.85,2.725,2.27,2.725
				C357.105,474.484,357.954,473.986,358.35,473.371z"/>
			<path style="fill:#1D262D;" d="M364.692,475.29v-9.771h1.099v3.765c0.571-0.776,1.421-1.245,2.388-1.245
				c1.845,0,3.149,1.465,3.149,3.721c0,2.3-1.304,3.706-3.149,3.706c-0.996,0-1.86-0.513-2.388-1.23v1.055H364.692z M367.9,474.484
				c1.436,0,2.285-1.157,2.285-2.725c0-1.567-0.85-2.739-2.285-2.739c-0.864,0-1.729,0.527-2.109,1.143v3.208
				C366.172,473.986,367.036,474.484,367.9,474.484z"/>
			<path style="fill:#1D262D;" d="M372.529,477.062c0.161,0.073,0.425,0.117,0.601,0.117c0.483,0,0.806-0.161,1.055-0.747
				l0.469-1.069l-2.959-7.148h1.186l2.358,5.801l2.344-5.801h1.2l-3.544,8.511c-0.425,1.024-1.143,1.421-2.08,1.436
				c-0.234,0-0.6-0.044-0.806-0.104L372.529,477.062z"/>
		</g>
	</g>
</g>
</svg>
